<?xml version="1.0" encoding="UTF-8" standalone="no"?>
<!DOCTYPE svg PUBLIC "-//W3C//DTD SVG 1.1//EN"
 "http://www.w3.org/Graphics/SVG/1.1/DTD/svg11.dtd">
<!-- Generated by graphviz version 6.0.1 (20220911.1526)
 -->
<!-- Title: G Pages: 1 -->
<svg width="545pt" height="456pt"
 viewBox="0.00 0.00 545.00 456.00" xmlns="http://www.w3.org/2000/svg" xmlns:xlink="http://www.w3.org/1999/xlink">
<g id="graph0" class="graph" transform="scale(1 1) rotate(0) translate(4 452)">
<title>G</title>
<polygon fill="white" stroke="none" points="-4,4 -4,-452 541,-452 541,4 -4,4"/>
<!-- migration_cbwk -->
<g id="node1" class="node">
<title>migration_cbwk</title>
<text text-anchor="start" x="11.5" y="-51.4" font-family="Helvetica,sans-Serif" font-weight="bold" font-size="7.00">migration_cbwk</text>
<text text-anchor="start" x="11.5" y="-38.4" font-family="Helvetica,sans-Serif" font-size="7.00">&#45; version_num</text>
<path fill="none" stroke="black" d="M16.67,-33C16.67,-33 60.33,-33 60.33,-33 64.67,-33 69,-37.33 69,-41.67 69,-41.67 69,-50.33 69,-50.33 69,-54.67 64.67,-59 60.33,-59 60.33,-59 16.67,-59 16.67,-59 12.33,-59 8,-54.67 8,-50.33 8,-50.33 8,-41.67 8,-41.67 8,-37.33 12.33,-33 16.67,-33"/>
</g>
<!-- auxuser -->
<g id="node2" class="node">
<title>auxuser</title>
<text text-anchor="start" x="493" y="-262.4" font-family="Helvetica,sans-Serif" font-weight="bold" font-size="7.00">auxuser</text>
<text text-anchor="start" x="488" y="-249.4" font-family="Helvetica,sans-Serif" font-size="7.00">&#45; email</text>
<text text-anchor="start" x="488" y="-237.4" font-family="Helvetica,sans-Serif" font-size="7.00">&#45; created_at</text>
<path fill="none" stroke="black" d="M497,-232C497,-232 517,-232 517,-232 523,-232 529,-238 529,-244 529,-244 529,-258 529,-258 529,-264 523,-270 517,-270 517,-270 497,-270 497,-270 491,-270 485,-264 485,-258 485,-258 485,-244 485,-244 485,-238 491,-232 497,-232"/>
</g>
<!-- users -->
<g id="node3" class="node">
<title>users</title>
<text text-anchor="start" x="371.5" y="-436.4" font-family="Helvetica,sans-Serif" font-weight="bold" font-size="7.00">users</text>
<text text-anchor="start" x="332" y="-423.4" font-family="Helvetica,sans-Serif" font-size="7.00">&#45; instance_id</text>
<text text-anchor="start" x="332" y="-411.4" font-family="Helvetica,sans-Serif" font-size="7.00">&#45; aud</text>
<text text-anchor="start" x="332" y="-399.4" font-family="Helvetica,sans-Serif" font-size="7.00">&#45; role</text>
<text text-anchor="start" x="332" y="-387.4" font-family="Helvetica,sans-Serif" font-size="7.00">&#45; email</text>
<text text-anchor="start" x="332" y="-375.4" font-family="Helvetica,sans-Serif" font-size="7.00">&#45; encrypted_password</text>
<text text-anchor="start" x="332" y="-363.4" font-family="Helvetica,sans-Serif" font-size="7.00">&#45; email_confirmed_at</text>
<text text-anchor="start" x="332" y="-351.4" font-family="Helvetica,sans-Serif" font-size="7.00">&#45; invited_at</text>
<text text-anchor="start" x="332" y="-339.4" font-family="Helvetica,sans-Serif" font-size="7.00">&#45; confirmation_token</text>
<text text-anchor="start" x="332" y="-327.4" font-family="Helvetica,sans-Serif" font-size="7.00">&#45; confirmation_sent_at</text>
<text text-anchor="start" x="332" y="-315.4" font-family="Helvetica,sans-Serif" font-size="7.00">&#45; recovery_token</text>
<text text-anchor="start" x="332" y="-303.4" font-family="Helvetica,sans-Serif" font-size="7.00">&#45; recovery_sent_at</text>
<text text-anchor="start" x="332" y="-291.4" font-family="Helvetica,sans-Serif" font-size="7.00">&#45; email_change_token_new</text>
<text text-anchor="start" x="332" y="-279.4" font-family="Helvetica,sans-Serif" font-size="7.00">&#45; email_change</text>
<text text-anchor="start" x="332" y="-267.4" font-family="Helvetica,sans-Serif" font-size="7.00">&#45; email_change_sent_at</text>
<text text-anchor="start" x="332" y="-255.4" font-family="Helvetica,sans-Serif" font-size="7.00">&#45; last_sign_in_at</text>
<text text-anchor="start" x="332" y="-243.4" font-family="Helvetica,sans-Serif" font-size="7.00">&#45; raw_app_meta_data</text>
<text text-anchor="start" x="332" y="-231.4" font-family="Helvetica,sans-Serif" font-size="7.00">&#45; raw_user_meta_data</text>
<text text-anchor="start" x="332" y="-219.4" font-family="Helvetica,sans-Serif" font-size="7.00">&#45; is_super_admin</text>
<text text-anchor="start" x="332" y="-207.4" font-family="Helvetica,sans-Serif" font-size="7.00">&#45; created_at</text>
<text text-anchor="start" x="332" y="-195.4" font-family="Helvetica,sans-Serif" font-size="7.00">&#45; updated_at</text>
<text text-anchor="start" x="332" y="-183.4" font-family="Helvetica,sans-Serif" font-size="7.00">&#45; phone</text>
<text text-anchor="start" x="332" y="-171.4" font-family="Helvetica,sans-Serif" font-size="7.00">&#45; phone_confirmed_at</text>
<text text-anchor="start" x="332" y="-159.4" font-family="Helvetica,sans-Serif" font-size="7.00">&#45; phone_change</text>
<text text-anchor="start" x="332" y="-147.4" font-family="Helvetica,sans-Serif" font-size="7.00">&#45; phone_change_token</text>
<text text-anchor="start" x="332" y="-135.4" font-family="Helvetica,sans-Serif" font-size="7.00">&#45; phone_change_sent_at</text>
<text text-anchor="start" x="332" y="-123.4" font-family="Helvetica,sans-Serif" font-size="7.00">&#45; confirmed_at</text>
<text text-anchor="start" x="332" y="-111.4" font-family="Helvetica,sans-Serif" font-size="7.00">&#45; email_change_token_current</text>
<text text-anchor="start" x="332" y="-99.4" font-family="Helvetica,sans-Serif" font-size="7.00">&#45; email_change_confirm_status</text>
<text text-anchor="start" x="332" y="-87.4" font-family="Helvetica,sans-Serif" font-size="7.00">&#45; banned_until</text>
<text text-anchor="start" x="332" y="-75.4" font-family="Helvetica,sans-Serif" font-size="7.00">&#45; reauthentication_token</text>
<text text-anchor="start" x="332" y="-63.4" font-family="Helvetica,sans-Serif" font-size="7.00">&#45; reauthentication_sent_at</text>
<path fill="none" stroke="black" d="M341,-58C341,-58 421,-58 421,-58 427,-58 433,-64 433,-70 433,-70 433,-432 433,-432 433,-438 427,-444 421,-444 421,-444 341,-444 341,-444 335,-444 329,-438 329,-432 329,-432 329,-70 329,-70 329,-64 335,-58 341,-58"/>
</g>
<!-- users&#45;&gt;auxuser -->
<g id="edge1" class="edge">
<title>users&#45;&gt;auxuser</title>
<path fill="none" stroke="black" d="M441.09,-251C453.57,-251 466.2,-251 476.97,-251"/>
<text text-anchor="middle" x="475.47" y="-245.4" font-family="Helvetica,sans-Serif" font-size="7.00"> </text>
<text text-anchor="middle" x="442.59" y="-245.4" font-family="Helvetica,sans-Serif" font-size="7.00"> </text>
</g>
<!-- organization -->
<g id="node4" class="node">
<title>organization</title>
<text text-anchor="start" x="359" y="-17.4" font-family="Helvetica,sans-Serif" font-weight="bold" font-size="7.00">organization</text>
<path fill="none" stroke="black" d="M360.67,-11C360.67,-11 401.33,-11 401.33,-11 403.67,-11 406,-13.33 406,-15.67 406,-15.67 406,-20.33 406,-20.33 406,-22.67 403.67,-25 401.33,-25 401.33,-25 360.67,-25 360.67,-25 358.33,-25 356,-22.67 356,-20.33 356,-20.33 356,-15.67 356,-15.67 356,-13.33 358.33,-11 360.67,-11"/>
</g>
<!-- account -->
<g id="node5" class="node">
<title>account</title>
<text text-anchor="start" x="234" y="-199.4" font-family="Helvetica,sans-Serif" font-weight="bold" font-size="7.00">account</text>
<text text-anchor="start" x="222" y="-186.4" font-family="Helvetica,sans-Serif" font-size="7.00">&#45; lnid</text>
<text text-anchor="start" x="222" y="-174.4" font-family="Helvetica,sans-Serif" font-size="7.00">&#45; handle</text>
<text text-anchor="start" x="222" y="-162.4" font-family="Helvetica,sans-Serif" font-size="7.00">&#45; name</text>
<text text-anchor="start" x="222" y="-150.4" font-family="Helvetica,sans-Serif" font-size="7.00">&#45; bio</text>
<text text-anchor="start" x="222" y="-138.4" font-family="Helvetica,sans-Serif" font-size="7.00">&#45; website</text>
<text text-anchor="start" x="222" y="-126.4" font-family="Helvetica,sans-Serif" font-size="7.00">&#45; github_handle</text>
<text text-anchor="start" x="222" y="-114.4" font-family="Helvetica,sans-Serif" font-size="7.00">&#45; twitter_handle</text>
<text text-anchor="start" x="222" y="-102.4" font-family="Helvetica,sans-Serif" font-size="7.00">&#45; linkedin_handle</text>
<text text-anchor="start" x="222" y="-90.4" font-family="Helvetica,sans-Serif" font-size="7.00">&#45; created_at</text>
<text text-anchor="start" x="222" y="-78.4" font-family="Helvetica,sans-Serif" font-size="7.00">&#45; updated_at</text>
<text text-anchor="start" x="222" y="-66.4" font-family="Helvetica,sans-Serif" font-size="7.00">&#45; user_id</text>
<path fill="none" stroke="black" d="M231,-61C231,-61 265,-61 265,-61 271,-61 277,-67 277,-73 277,-73 277,-195 277,-195 277,-201 271,-207 265,-207 265,-207 231,-207 231,-207 225,-207 219,-201 219,-195 219,-195 219,-73 219,-73 219,-67 225,-61 231,-61"/>
</g>
<!-- account&#45;&gt;users -->
<g id="edge3" class="edge">
<title>account&#45;&gt;users</title>
<path fill="none" stroke="black" d="M285.14,-166.28C296.2,-176.16 308.66,-187.29 320.83,-198.16"/>
<text text-anchor="middle" x="319.33" y="-192.56" font-family="Helvetica,sans-Serif" font-size="7.00"> </text>
<text text-anchor="middle" x="286.64" y="-160.68" font-family="Helvetica,sans-Serif" font-size="7.00"> </text>
</g>
<!-- account&#45;&gt;organization -->
<g id="edge2" class="edge">
<title>account&#45;&gt;organization</title>
<path fill="none" stroke="black" d="M285.35,-80.85C295.82,-68.02 307.97,-55.11 321,-45 329.01,-38.78 338.68,-33.6 347.85,-29.5"/>
<text text-anchor="middle" x="346.35" y="-23.9" font-family="Helvetica,sans-Serif" font-size="7.00"> </text>
<text text-anchor="middle" x="286.85" y="-75.25" font-family="Helvetica,sans-Serif" font-size="7.00"> </text>
</g>
<!-- storage -->
<g id="node6" class="node">
<title>storage</title>
<text text-anchor="start" x="131" y="-132.4" font-family="Helvetica,sans-Serif" font-weight="bold" font-size="7.00">storage</text>
<text text-anchor="start" x="124" y="-119.4" font-family="Helvetica,sans-Serif" font-size="7.00">&#45; account_id</text>
<text text-anchor="start" x="124" y="-107.4" font-family="Helvetica,sans-Serif" font-size="7.00">&#45; root</text>
<text text-anchor="start" x="124" y="-95.4" font-family="Helvetica,sans-Serif" font-size="7.00">&#45; type</text>
<text text-anchor="start" x="124" y="-83.4" font-family="Helvetica,sans-Serif" font-size="7.00">&#45; region</text>
<text text-anchor="start" x="124" y="-71.4" font-family="Helvetica,sans-Serif" font-size="7.00">&#45; created_at</text>
<text text-anchor="start" x="124" y="-59.4" font-family="Helvetica,sans-Serif" font-size="7.00">&#45; updated_at</text>
<path fill="none" stroke="black" d="M133,-54C133,-54 155,-54 155,-54 161,-54 167,-60 167,-66 167,-66 167,-128 167,-128 167,-134 161,-140 155,-140 155,-140 133,-140 133,-140 127,-140 121,-134 121,-128 121,-128 121,-66 121,-66 121,-60 127,-54 133,-54"/>
</g>
<!-- storage&#45;&gt;account -->
<g id="edge4" class="edge">
<title>storage&#45;&gt;account</title>
<path fill="none" stroke="black" d="M175.05,-107.9C186.22,-111.95 199,-116.59 210.67,-120.82"/>
<text text-anchor="middle" x="209.17" y="-115.22" font-family="Helvetica,sans-Serif" font-size="7.00"> </text>
<text text-anchor="middle" x="176.55" y="-102.3" font-family="Helvetica,sans-Serif" font-size="7.00"> </text>
</g>
<!-- instance -->
<g id="node7" class="node">
<title>instance</title>
<text text-anchor="start" x="24" y="-176.4" font-family="Helvetica,sans-Serif" font-weight="bold" font-size="7.00">instance</text>
<text text-anchor="start" x="17.5" y="-163.4" font-family="Helvetica,sans-Serif" font-size="7.00">&#45; account_id</text>
<text text-anchor="start" x="17.5" y="-151.4" font-family="Helvetica,sans-Serif" font-size="7.00">&#45; name</text>
<text text-anchor="start" x="17.5" y="-139.4" font-family="Helvetica,sans-Serif" font-size="7.00">&#45; storage_id</text>
<text text-anchor="start" x="17.5" y="-127.4" font-family="Helvetica,sans-Serif" font-size="7.00">&#45; db</text>
<text text-anchor="start" x="17.5" y="-115.4" font-family="Helvetica,sans-Serif" font-size="7.00">&#45; schema_str</text>
<text text-anchor="start" x="17.5" y="-103.4" font-family="Helvetica,sans-Serif" font-size="7.00">&#45; created_at</text>
<text text-anchor="start" x="17.5" y="-91.4" font-family="Helvetica,sans-Serif" font-size="7.00">&#45; updated_at</text>
<path fill="none" stroke="black" d="M26.5,-86C26.5,-86 50.5,-86 50.5,-86 56.5,-86 62.5,-92 62.5,-98 62.5,-98 62.5,-172 62.5,-172 62.5,-178 56.5,-184 50.5,-184 50.5,-184 26.5,-184 26.5,-184 20.5,-184 14.5,-178 14.5,-172 14.5,-172 14.5,-98 14.5,-98 14.5,-92 20.5,-86 26.5,-86"/>
</g>
<!-- instance&#45;&gt;account -->
<g id="edge6" class="edge">
<title>instance&#45;&gt;account</title>
<path fill="none" stroke="black" d="M70.67,-144.39C83.63,-147.83 98.91,-151.3 113,-153 140.36,-156.3 147.67,-156.54 175,-153 186.79,-151.47 199.41,-148.59 210.73,-145.52"/>
<text text-anchor="middle" x="209.23" y="-139.92" font-family="Helvetica,sans-Serif" font-size="7.00"> </text>
<text text-anchor="middle" x="72.17" y="-138.79" font-family="Helvetica,sans-Serif" font-size="7.00"> </text>
</g>
<!-- instance&#45;&gt;storage -->
<g id="edge5" class="edge">
<title>instance&#45;&gt;storage</title>
<path fill="none" stroke="black" d="M70.55,-123.6C83.89,-118.7 99.43,-113 112.68,-108.13"/>
<text text-anchor="middle" x="111.18" y="-102.53" font-family="Helvetica,sans-Serif" font-size="7.00"> </text>
<text text-anchor="middle" x="72.05" y="-118" font-family="Helvetica,sans-Serif" font-size="7.00"> </text>
</g>
</g>
</svg>
