<?xml version="1.0" encoding="UTF-8" standalone="no"?>
<!DOCTYPE svg PUBLIC "-//W3C//DTD SVG 1.1//EN"
 "http://www.w3.org/Graphics/SVG/1.1/DTD/svg11.dtd">
<!-- Generated by graphviz version 6.0.1 (20220911.1526)
 -->
<!-- Title: G Pages: 1 -->
<svg width="456pt" height="576pt"
 viewBox="0.00 0.00 456.00 576.00" xmlns="http://www.w3.org/2000/svg" xmlns:xlink="http://www.w3.org/1999/xlink">
<g id="graph0" class="graph" transform="scale(1 1) rotate(0) translate(4 572)">
<title>G</title>
<polygon fill="white" stroke="none" points="-4,4 -4,-572 452,-572 452,4 -4,4"/>
<!-- version_cbwk -->
<g id="node1" class="node">
<title>version_cbwk</title>
<text text-anchor="start" x="124.5" y="-272.4" font-family="Helvetica,sans-Serif" font-weight="bold" font-size="7.00">version_cbwk</text>
<text text-anchor="start" x="124.5" y="-259.4" font-family="Helvetica,sans-Serif" font-size="7.00">&#45; v</text>
<text text-anchor="start" x="124.5" y="-247.4" font-family="Helvetica,sans-Serif" font-size="7.00">&#45; migration</text>
<text text-anchor="start" x="124.5" y="-235.4" font-family="Helvetica,sans-Serif" font-size="7.00">&#45; user_id</text>
<text text-anchor="start" x="124.5" y="-223.4" font-family="Helvetica,sans-Serif" font-size="7.00">&#45; created_at</text>
<text text-anchor="start" x="124.5" y="-211.4" font-family="Helvetica,sans-Serif" font-size="7.00">&#45; breaks_lndb</text>
<path fill="none" stroke="black" d="M133,-206C133,-206 162,-206 162,-206 168,-206 174,-212 174,-218 174,-218 174,-268 174,-268 174,-274 168,-280 162,-280 162,-280 133,-280 133,-280 127,-280 121,-274 121,-268 121,-268 121,-218 121,-218 121,-212 127,-206 133,-206"/>
</g>
<!-- account -->
<g id="node2" class="node">
<title>account</title>
<text text-anchor="start" x="241" y="-225.4" font-family="Helvetica,sans-Serif" font-weight="bold" font-size="7.00">account</text>
<text text-anchor="start" x="229" y="-212.4" font-family="Helvetica,sans-Serif" font-size="7.00">&#45; lnid</text>
<text text-anchor="start" x="229" y="-200.4" font-family="Helvetica,sans-Serif" font-size="7.00">&#45; handle</text>
<text text-anchor="start" x="229" y="-188.4" font-family="Helvetica,sans-Serif" font-size="7.00">&#45; name</text>
<text text-anchor="start" x="229" y="-176.4" font-family="Helvetica,sans-Serif" font-size="7.00">&#45; bio</text>
<text text-anchor="start" x="229" y="-164.4" font-family="Helvetica,sans-Serif" font-size="7.00">&#45; website</text>
<text text-anchor="start" x="229" y="-152.4" font-family="Helvetica,sans-Serif" font-size="7.00">&#45; github_handle</text>
<text text-anchor="start" x="229" y="-140.4" font-family="Helvetica,sans-Serif" font-size="7.00">&#45; twitter_handle</text>
<text text-anchor="start" x="229" y="-128.4" font-family="Helvetica,sans-Serif" font-size="7.00">&#45; linkedin_handle</text>
<text text-anchor="start" x="229" y="-116.4" font-family="Helvetica,sans-Serif" font-size="7.00">&#45; created_at</text>
<text text-anchor="start" x="229" y="-104.4" font-family="Helvetica,sans-Serif" font-size="7.00">&#45; updated_at</text>
<text text-anchor="start" x="229" y="-92.4" font-family="Helvetica,sans-Serif" font-size="7.00">&#45; user_id</text>
<text text-anchor="start" x="229" y="-80.4" font-family="Helvetica,sans-Serif" font-size="7.00">&#45; avatar_url</text>
<path fill="none" stroke="black" d="M238,-75C238,-75 272,-75 272,-75 278,-75 284,-81 284,-87 284,-87 284,-221 284,-221 284,-227 278,-233 272,-233 272,-233 238,-233 238,-233 232,-233 226,-227 226,-221 226,-221 226,-87 226,-87 226,-81 232,-75 238,-75"/>
</g>
<!-- version_cbwk&#45;&gt;account -->
<g id="edge1" class="edge">
<title>version_cbwk&#45;&gt;account</title>
<path fill="none" stroke="black" d="M182.17,-214.6C193.51,-205.03 206.2,-194.32 217.73,-184.6"/>
<text text-anchor="middle" x="216.23" y="-179" font-family="Helvetica,sans-Serif" font-size="7.00"> </text>
<text text-anchor="middle" x="183.67" y="-209" font-family="Helvetica,sans-Serif" font-size="7.00"> </text>
</g>
<!-- users -->
<g id="node3" class="node">
<title>users</title>
<text text-anchor="start" x="378.5" y="-556.4" font-family="Helvetica,sans-Serif" font-weight="bold" font-size="7.00">users</text>
<text text-anchor="start" x="339" y="-543.4" font-family="Helvetica,sans-Serif" font-size="7.00">&#45; instance_id</text>
<text text-anchor="start" x="339" y="-531.4" font-family="Helvetica,sans-Serif" font-size="7.00">&#45; aud</text>
<text text-anchor="start" x="339" y="-519.4" font-family="Helvetica,sans-Serif" font-size="7.00">&#45; role</text>
<text text-anchor="start" x="339" y="-507.4" font-family="Helvetica,sans-Serif" font-size="7.00">&#45; email</text>
<text text-anchor="start" x="339" y="-495.4" font-family="Helvetica,sans-Serif" font-size="7.00">&#45; encrypted_password</text>
<text text-anchor="start" x="339" y="-483.4" font-family="Helvetica,sans-Serif" font-size="7.00">&#45; email_confirmed_at</text>
<text text-anchor="start" x="339" y="-471.4" font-family="Helvetica,sans-Serif" font-size="7.00">&#45; invited_at</text>
<text text-anchor="start" x="339" y="-459.4" font-family="Helvetica,sans-Serif" font-size="7.00">&#45; confirmation_token</text>
<text text-anchor="start" x="339" y="-447.4" font-family="Helvetica,sans-Serif" font-size="7.00">&#45; confirmation_sent_at</text>
<text text-anchor="start" x="339" y="-435.4" font-family="Helvetica,sans-Serif" font-size="7.00">&#45; recovery_token</text>
<text text-anchor="start" x="339" y="-423.4" font-family="Helvetica,sans-Serif" font-size="7.00">&#45; recovery_sent_at</text>
<text text-anchor="start" x="339" y="-411.4" font-family="Helvetica,sans-Serif" font-size="7.00">&#45; email_change_token_new</text>
<text text-anchor="start" x="339" y="-399.4" font-family="Helvetica,sans-Serif" font-size="7.00">&#45; email_change</text>
<text text-anchor="start" x="339" y="-387.4" font-family="Helvetica,sans-Serif" font-size="7.00">&#45; email_change_sent_at</text>
<text text-anchor="start" x="339" y="-375.4" font-family="Helvetica,sans-Serif" font-size="7.00">&#45; last_sign_in_at</text>
<text text-anchor="start" x="339" y="-363.4" font-family="Helvetica,sans-Serif" font-size="7.00">&#45; raw_app_meta_data</text>
<text text-anchor="start" x="339" y="-351.4" font-family="Helvetica,sans-Serif" font-size="7.00">&#45; raw_user_meta_data</text>
<text text-anchor="start" x="339" y="-339.4" font-family="Helvetica,sans-Serif" font-size="7.00">&#45; is_super_admin</text>
<text text-anchor="start" x="339" y="-327.4" font-family="Helvetica,sans-Serif" font-size="7.00">&#45; created_at</text>
<text text-anchor="start" x="339" y="-315.4" font-family="Helvetica,sans-Serif" font-size="7.00">&#45; updated_at</text>
<text text-anchor="start" x="339" y="-303.4" font-family="Helvetica,sans-Serif" font-size="7.00">&#45; phone</text>
<text text-anchor="start" x="339" y="-291.4" font-family="Helvetica,sans-Serif" font-size="7.00">&#45; phone_confirmed_at</text>
<text text-anchor="start" x="339" y="-279.4" font-family="Helvetica,sans-Serif" font-size="7.00">&#45; phone_change</text>
<text text-anchor="start" x="339" y="-267.4" font-family="Helvetica,sans-Serif" font-size="7.00">&#45; phone_change_token</text>
<text text-anchor="start" x="339" y="-255.4" font-family="Helvetica,sans-Serif" font-size="7.00">&#45; phone_change_sent_at</text>
<text text-anchor="start" x="339" y="-243.4" font-family="Helvetica,sans-Serif" font-size="7.00">&#45; confirmed_at</text>
<text text-anchor="start" x="339" y="-231.4" font-family="Helvetica,sans-Serif" font-size="7.00">&#45; email_change_token_current</text>
<text text-anchor="start" x="339" y="-219.4" font-family="Helvetica,sans-Serif" font-size="7.00">&#45; email_change_confirm_status</text>
<text text-anchor="start" x="339" y="-207.4" font-family="Helvetica,sans-Serif" font-size="7.00">&#45; banned_until</text>
<text text-anchor="start" x="339" y="-195.4" font-family="Helvetica,sans-Serif" font-size="7.00">&#45; reauthentication_token</text>
<text text-anchor="start" x="339" y="-183.4" font-family="Helvetica,sans-Serif" font-size="7.00">&#45; reauthentication_sent_at</text>
<text text-anchor="start" x="339" y="-171.4" font-family="Helvetica,sans-Serif" font-size="7.00">&#45; is_sso_user</text>
<path fill="none" stroke="black" d="M348,-166C348,-166 428,-166 428,-166 434,-166 440,-172 440,-178 440,-178 440,-552 440,-552 440,-558 434,-564 428,-564 428,-564 348,-564 348,-564 342,-564 336,-558 336,-552 336,-552 336,-178 336,-178 336,-172 342,-166 348,-166"/>
</g>
<!-- account&#45;&gt;users -->
<g id="edge2" class="edge">
<title>account&#45;&gt;users</title>
<path fill="none" stroke="black" d="M292.14,-212.22C303.2,-230.02 315.66,-250.1 327.83,-269.7"/>
<text text-anchor="middle" x="326.33" y="-264.1" font-family="Helvetica,sans-Serif" font-size="7.00"> </text>
<text text-anchor="middle" x="293.64" y="-206.62" font-family="Helvetica,sans-Serif" font-size="7.00"> </text>
</g>
<!-- account_instance -->
<g id="node5" class="node">
<title>account_instance</title>
<text text-anchor="start" x="358" y="-70.4" font-family="Helvetica,sans-Serif" font-weight="bold" font-size="7.00">account_instance</text>
<text text-anchor="start" x="358" y="-57.4" font-family="Helvetica,sans-Serif" font-size="7.00">&#45; account_id</text>
<text text-anchor="start" x="358" y="-45.4" font-family="Helvetica,sans-Serif" font-size="7.00">&#45; instance_id</text>
<text text-anchor="start" x="358" y="-33.4" font-family="Helvetica,sans-Serif" font-size="7.00">&#45; permission</text>
<text text-anchor="start" x="358" y="-21.4" font-family="Helvetica,sans-Serif" font-size="7.00">&#45; created_at</text>
<text text-anchor="start" x="358" y="-9.4" font-family="Helvetica,sans-Serif" font-size="7.00">&#45; updated_at</text>
<path fill="none" stroke="black" d="M367,-4C367,-4 409,-4 409,-4 415,-4 421,-10 421,-16 421,-16 421,-66 421,-66 421,-72 415,-78 409,-78 409,-78 367,-78 367,-78 361,-78 355,-72 355,-66 355,-66 355,-16 355,-16 355,-10 361,-4 367,-4"/>
</g>
<!-- account&#45;&gt;account_instance -->
<g id="edge4" class="edge">
<title>account&#45;&gt;account_instance</title>
<path fill="none" stroke="black" d="M292.14,-122.82C309.11,-108.19 329.38,-90.7 346.83,-75.65"/>
<text text-anchor="middle" x="345.33" y="-70.05" font-family="Helvetica,sans-Serif" font-size="7.00"> </text>
<text text-anchor="middle" x="293.64" y="-117.22" font-family="Helvetica,sans-Serif" font-size="7.00"> </text>
</g>
<!-- organization -->
<g id="node8" class="node">
<title>organization</title>
<text text-anchor="start" x="366" y="-125.4" font-family="Helvetica,sans-Serif" font-weight="bold" font-size="7.00">organization</text>
<path fill="none" stroke="black" d="M367.67,-119C367.67,-119 408.33,-119 408.33,-119 410.67,-119 413,-121.33 413,-123.67 413,-123.67 413,-128.33 413,-128.33 413,-130.67 410.67,-133 408.33,-133 408.33,-133 367.67,-133 367.67,-133 365.33,-133 363,-130.67 363,-128.33 363,-128.33 363,-123.67 363,-123.67 363,-121.33 365.33,-119 367.67,-119"/>
</g>
<!-- account&#45;&gt;organization -->
<g id="edge8" class="edge">
<title>account&#45;&gt;organization</title>
<path fill="none" stroke="black" d="M292.14,-146.27C311.83,-142.07 335.99,-136.9 354.99,-132.84"/>
<text text-anchor="middle" x="353.49" y="-127.24" font-family="Helvetica,sans-Serif" font-size="7.00"> </text>
<text text-anchor="middle" x="293.64" y="-140.67" font-family="Helvetica,sans-Serif" font-size="7.00"> </text>
</g>
<!-- migration_cbwk -->
<g id="node4" class="node">
<title>migration_cbwk</title>
<text text-anchor="start" x="11.5" y="-205.4" font-family="Helvetica,sans-Serif" font-weight="bold" font-size="7.00">migration_cbwk</text>
<text text-anchor="start" x="11.5" y="-192.4" font-family="Helvetica,sans-Serif" font-size="7.00">&#45; version_num</text>
<path fill="none" stroke="black" d="M16.67,-187C16.67,-187 60.33,-187 60.33,-187 64.67,-187 69,-191.33 69,-195.67 69,-195.67 69,-204.33 69,-204.33 69,-208.67 64.67,-213 60.33,-213 60.33,-213 16.67,-213 16.67,-213 12.33,-213 8,-208.67 8,-204.33 8,-204.33 8,-195.67 8,-195.67 8,-191.33 12.33,-187 16.67,-187"/>
</g>
<!-- instance -->
<g id="node6" class="node">
<title>instance</title>
<text text-anchor="start" x="24" y="-152.4" font-family="Helvetica,sans-Serif" font-weight="bold" font-size="7.00">instance</text>
<text text-anchor="start" x="17.5" y="-139.4" font-family="Helvetica,sans-Serif" font-size="7.00">&#45; account_id</text>
<text text-anchor="start" x="17.5" y="-127.4" font-family="Helvetica,sans-Serif" font-size="7.00">&#45; name</text>
<text text-anchor="start" x="17.5" y="-115.4" font-family="Helvetica,sans-Serif" font-size="7.00">&#45; storage_id</text>
<text text-anchor="start" x="17.5" y="-103.4" font-family="Helvetica,sans-Serif" font-size="7.00">&#45; db</text>
<text text-anchor="start" x="17.5" y="-91.4" font-family="Helvetica,sans-Serif" font-size="7.00">&#45; schema_str</text>
<text text-anchor="start" x="17.5" y="-79.4" font-family="Helvetica,sans-Serif" font-size="7.00">&#45; created_at</text>
<text text-anchor="start" x="17.5" y="-67.4" font-family="Helvetica,sans-Serif" font-size="7.00">&#45; updated_at</text>
<text text-anchor="start" x="17.5" y="-55.4" font-family="Helvetica,sans-Serif" font-size="7.00">&#45; description</text>
<text text-anchor="start" x="17.5" y="-43.4" font-family="Helvetica,sans-Serif" font-size="7.00">&#45; public</text>
<path fill="none" stroke="black" d="M26.5,-38C26.5,-38 50.5,-38 50.5,-38 56.5,-38 62.5,-44 62.5,-50 62.5,-50 62.5,-148 62.5,-148 62.5,-154 56.5,-160 50.5,-160 50.5,-160 26.5,-160 26.5,-160 20.5,-160 14.5,-154 14.5,-148 14.5,-148 14.5,-50 14.5,-50 14.5,-44 20.5,-38 26.5,-38"/>
</g>
<!-- instance&#45;&gt;account -->
<g id="edge6" class="edge">
<title>instance&#45;&gt;account</title>
<path fill="none" stroke="black" d="M70.82,-130.03C82.97,-140.01 97.65,-149.82 113,-155 147.21,-166.55 188.81,-164.46 217.92,-160.61"/>
<text text-anchor="middle" x="216.42" y="-155.01" font-family="Helvetica,sans-Serif" font-size="7.00"> </text>
<text text-anchor="middle" x="72.32" y="-124.43" font-family="Helvetica,sans-Serif" font-size="7.00"> </text>
</g>
<!-- instance&#45;&gt;account_instance -->
<g id="edge3" class="edge">
<title>instance&#45;&gt;account_instance</title>
<path fill="none" stroke="black" d="M70.84,-68.03C82.99,-58.06 97.67,-48.24 113,-43 192.23,-15.93 292.03,-25.14 346.66,-33.53"/>
<text text-anchor="middle" x="345.16" y="-27.93" font-family="Helvetica,sans-Serif" font-size="7.00"> </text>
<text text-anchor="middle" x="72.34" y="-62.43" font-family="Helvetica,sans-Serif" font-size="7.00"> </text>
</g>
<!-- storage -->
<g id="node7" class="node">
<title>storage</title>
<text text-anchor="start" x="134.5" y="-134.4" font-family="Helvetica,sans-Serif" font-weight="bold" font-size="7.00">storage</text>
<text text-anchor="start" x="127.5" y="-121.4" font-family="Helvetica,sans-Serif" font-size="7.00">&#45; account_id</text>
<text text-anchor="start" x="127.5" y="-109.4" font-family="Helvetica,sans-Serif" font-size="7.00">&#45; root</text>
<text text-anchor="start" x="127.5" y="-97.4" font-family="Helvetica,sans-Serif" font-size="7.00">&#45; type</text>
<text text-anchor="start" x="127.5" y="-85.4" font-family="Helvetica,sans-Serif" font-size="7.00">&#45; region</text>
<text text-anchor="start" x="127.5" y="-73.4" font-family="Helvetica,sans-Serif" font-size="7.00">&#45; created_at</text>
<text text-anchor="start" x="127.5" y="-61.4" font-family="Helvetica,sans-Serif" font-size="7.00">&#45; updated_at</text>
<path fill="none" stroke="black" d="M136.5,-56C136.5,-56 158.5,-56 158.5,-56 164.5,-56 170.5,-62 170.5,-68 170.5,-68 170.5,-130 170.5,-130 170.5,-136 164.5,-142 158.5,-142 158.5,-142 136.5,-142 136.5,-142 130.5,-142 124.5,-136 124.5,-130 124.5,-130 124.5,-68 124.5,-68 124.5,-62 130.5,-56 136.5,-56"/>
</g>
<!-- instance&#45;&gt;storage -->
<g id="edge5" class="edge">
<title>instance&#45;&gt;storage</title>
<path fill="none" stroke="black" d="M70.74,-99C85.05,-99 101.94,-99 116.15,-99"/>
<text text-anchor="middle" x="114.65" y="-93.4" font-family="Helvetica,sans-Serif" font-size="7.00"> </text>
<text text-anchor="middle" x="72.24" y="-93.4" font-family="Helvetica,sans-Serif" font-size="7.00"> </text>
</g>
<!-- storage&#45;&gt;account -->
<g id="edge7" class="edge">
<title>storage&#45;&gt;account</title>
<path fill="none" stroke="black" d="M178.73,-114.76C190.91,-121.11 205.06,-128.49 217.78,-135.12"/>
<text text-anchor="middle" x="216.28" y="-129.52" font-family="Helvetica,sans-Serif" font-size="7.00"> </text>
<text text-anchor="middle" x="180.23" y="-109.16" font-family="Helvetica,sans-Serif" font-size="7.00"> </text>
</g>
</g>
</svg>
