<?xml version="1.0" encoding="UTF-8" standalone="no"?>
<!DOCTYPE svg PUBLIC "-//W3C//DTD SVG 1.1//EN"
 "http://www.w3.org/Graphics/SVG/1.1/DTD/svg11.dtd">
<!-- Generated by graphviz version 6.0.1 (20220911.1526)
 -->
<!-- Title: G Pages: 1 -->
<svg width="449pt" height="456pt"
 viewBox="0.00 0.00 449.00 456.00" xmlns="http://www.w3.org/2000/svg" xmlns:xlink="http://www.w3.org/1999/xlink">
<g id="graph0" class="graph" transform="scale(1 1) rotate(0) translate(4 452)">
<title>G</title>
<polygon fill="white" stroke="none" points="-4,4 -4,-452 445,-452 445,4 -4,4"/>
<!-- migration_cbwk -->
<g id="node1" class="node">
<title>migration_cbwk</title>
<text text-anchor="start" x="11.5" y="-230.4" font-family="Helvetica,sans-Serif" font-weight="bold" font-size="7.00">migration_cbwk</text>
<text text-anchor="start" x="11.5" y="-217.4" font-family="Helvetica,sans-Serif" font-size="7.00">&#45; version_num</text>
<path fill="none" stroke="black" d="M16.67,-212C16.67,-212 60.33,-212 60.33,-212 64.67,-212 69,-216.33 69,-220.67 69,-220.67 69,-229.33 69,-229.33 69,-233.67 64.67,-238 60.33,-238 60.33,-238 16.67,-238 16.67,-238 12.33,-238 8,-233.67 8,-229.33 8,-229.33 8,-220.67 8,-220.67 8,-216.33 12.33,-212 16.67,-212"/>
</g>
<!-- organization -->
<g id="node2" class="node">
<title>organization</title>
<text text-anchor="start" x="359" y="-429.4" font-family="Helvetica,sans-Serif" font-weight="bold" font-size="7.00">organization</text>
<path fill="none" stroke="black" d="M360.67,-423C360.67,-423 401.33,-423 401.33,-423 403.67,-423 406,-425.33 406,-427.67 406,-427.67 406,-432.33 406,-432.33 406,-434.67 403.67,-437 401.33,-437 401.33,-437 360.67,-437 360.67,-437 358.33,-437 356,-434.67 356,-432.33 356,-432.33 356,-427.67 356,-427.67 356,-425.33 358.33,-423 360.67,-423"/>
</g>
<!-- account -->
<g id="node3" class="node">
<title>account</title>
<text text-anchor="start" x="234" y="-378.4" font-family="Helvetica,sans-Serif" font-weight="bold" font-size="7.00">account</text>
<text text-anchor="start" x="222" y="-365.4" font-family="Helvetica,sans-Serif" font-size="7.00">&#45; lnid</text>
<text text-anchor="start" x="222" y="-353.4" font-family="Helvetica,sans-Serif" font-size="7.00">&#45; handle</text>
<text text-anchor="start" x="222" y="-341.4" font-family="Helvetica,sans-Serif" font-size="7.00">&#45; name</text>
<text text-anchor="start" x="222" y="-329.4" font-family="Helvetica,sans-Serif" font-size="7.00">&#45; bio</text>
<text text-anchor="start" x="222" y="-317.4" font-family="Helvetica,sans-Serif" font-size="7.00">&#45; website</text>
<text text-anchor="start" x="222" y="-305.4" font-family="Helvetica,sans-Serif" font-size="7.00">&#45; github_handle</text>
<text text-anchor="start" x="222" y="-293.4" font-family="Helvetica,sans-Serif" font-size="7.00">&#45; twitter_handle</text>
<text text-anchor="start" x="222" y="-281.4" font-family="Helvetica,sans-Serif" font-size="7.00">&#45; linkedin_handle</text>
<text text-anchor="start" x="222" y="-269.4" font-family="Helvetica,sans-Serif" font-size="7.00">&#45; created_at</text>
<text text-anchor="start" x="222" y="-257.4" font-family="Helvetica,sans-Serif" font-size="7.00">&#45; updated_at</text>
<text text-anchor="start" x="222" y="-245.4" font-family="Helvetica,sans-Serif" font-size="7.00">&#45; user_id</text>
<path fill="none" stroke="black" d="M231,-240C231,-240 265,-240 265,-240 271,-240 277,-246 277,-252 277,-252 277,-374 277,-374 277,-380 271,-386 265,-386 265,-386 231,-386 231,-386 225,-386 219,-380 219,-374 219,-374 219,-252 219,-252 219,-246 225,-240 231,-240"/>
</g>
<!-- account&#45;&gt;organization -->
<g id="edge1" class="edge">
<title>account&#45;&gt;organization</title>
<path fill="none" stroke="black" d="M285.26,-366.76C295.73,-379.73 307.91,-392.78 321,-403 328.99,-409.24 338.66,-414.43 347.83,-418.53"/>
<text text-anchor="middle" x="346.33" y="-412.93" font-family="Helvetica,sans-Serif" font-size="7.00"> </text>
<text text-anchor="middle" x="286.76" y="-361.16" font-family="Helvetica,sans-Serif" font-size="7.00"> </text>
</g>
<!-- users -->
<g id="node4" class="node">
<title>users</title>
<text text-anchor="start" x="371.5" y="-382.4" font-family="Helvetica,sans-Serif" font-weight="bold" font-size="7.00">users</text>
<text text-anchor="start" x="332" y="-369.4" font-family="Helvetica,sans-Serif" font-size="7.00">&#45; instance_id</text>
<text text-anchor="start" x="332" y="-357.4" font-family="Helvetica,sans-Serif" font-size="7.00">&#45; aud</text>
<text text-anchor="start" x="332" y="-345.4" font-family="Helvetica,sans-Serif" font-size="7.00">&#45; role</text>
<text text-anchor="start" x="332" y="-333.4" font-family="Helvetica,sans-Serif" font-size="7.00">&#45; email</text>
<text text-anchor="start" x="332" y="-321.4" font-family="Helvetica,sans-Serif" font-size="7.00">&#45; encrypted_password</text>
<text text-anchor="start" x="332" y="-309.4" font-family="Helvetica,sans-Serif" font-size="7.00">&#45; email_confirmed_at</text>
<text text-anchor="start" x="332" y="-297.4" font-family="Helvetica,sans-Serif" font-size="7.00">&#45; invited_at</text>
<text text-anchor="start" x="332" y="-285.4" font-family="Helvetica,sans-Serif" font-size="7.00">&#45; confirmation_token</text>
<text text-anchor="start" x="332" y="-273.4" font-family="Helvetica,sans-Serif" font-size="7.00">&#45; confirmation_sent_at</text>
<text text-anchor="start" x="332" y="-261.4" font-family="Helvetica,sans-Serif" font-size="7.00">&#45; recovery_token</text>
<text text-anchor="start" x="332" y="-249.4" font-family="Helvetica,sans-Serif" font-size="7.00">&#45; recovery_sent_at</text>
<text text-anchor="start" x="332" y="-237.4" font-family="Helvetica,sans-Serif" font-size="7.00">&#45; email_change_token_new</text>
<text text-anchor="start" x="332" y="-225.4" font-family="Helvetica,sans-Serif" font-size="7.00">&#45; email_change</text>
<text text-anchor="start" x="332" y="-213.4" font-family="Helvetica,sans-Serif" font-size="7.00">&#45; email_change_sent_at</text>
<text text-anchor="start" x="332" y="-201.4" font-family="Helvetica,sans-Serif" font-size="7.00">&#45; last_sign_in_at</text>
<text text-anchor="start" x="332" y="-189.4" font-family="Helvetica,sans-Serif" font-size="7.00">&#45; raw_app_meta_data</text>
<text text-anchor="start" x="332" y="-177.4" font-family="Helvetica,sans-Serif" font-size="7.00">&#45; raw_user_meta_data</text>
<text text-anchor="start" x="332" y="-165.4" font-family="Helvetica,sans-Serif" font-size="7.00">&#45; is_super_admin</text>
<text text-anchor="start" x="332" y="-153.4" font-family="Helvetica,sans-Serif" font-size="7.00">&#45; created_at</text>
<text text-anchor="start" x="332" y="-141.4" font-family="Helvetica,sans-Serif" font-size="7.00">&#45; updated_at</text>
<text text-anchor="start" x="332" y="-129.4" font-family="Helvetica,sans-Serif" font-size="7.00">&#45; phone</text>
<text text-anchor="start" x="332" y="-117.4" font-family="Helvetica,sans-Serif" font-size="7.00">&#45; phone_confirmed_at</text>
<text text-anchor="start" x="332" y="-105.4" font-family="Helvetica,sans-Serif" font-size="7.00">&#45; phone_change</text>
<text text-anchor="start" x="332" y="-93.4" font-family="Helvetica,sans-Serif" font-size="7.00">&#45; phone_change_token</text>
<text text-anchor="start" x="332" y="-81.4" font-family="Helvetica,sans-Serif" font-size="7.00">&#45; phone_change_sent_at</text>
<text text-anchor="start" x="332" y="-69.4" font-family="Helvetica,sans-Serif" font-size="7.00">&#45; confirmed_at</text>
<text text-anchor="start" x="332" y="-57.4" font-family="Helvetica,sans-Serif" font-size="7.00">&#45; email_change_token_current</text>
<text text-anchor="start" x="332" y="-45.4" font-family="Helvetica,sans-Serif" font-size="7.00">&#45; email_change_confirm_status</text>
<text text-anchor="start" x="332" y="-33.4" font-family="Helvetica,sans-Serif" font-size="7.00">&#45; banned_until</text>
<text text-anchor="start" x="332" y="-21.4" font-family="Helvetica,sans-Serif" font-size="7.00">&#45; reauthentication_token</text>
<text text-anchor="start" x="332" y="-9.4" font-family="Helvetica,sans-Serif" font-size="7.00">&#45; reauthentication_sent_at</text>
<path fill="none" stroke="black" d="M341,-4C341,-4 421,-4 421,-4 427,-4 433,-10 433,-16 433,-16 433,-378 433,-378 433,-384 427,-390 421,-390 421,-390 341,-390 341,-390 335,-390 329,-384 329,-378 329,-378 329,-16 329,-16 329,-10 335,-4 341,-4"/>
</g>
<!-- account&#45;&gt;users -->
<g id="edge2" class="edge">
<title>account&#45;&gt;users</title>
<path fill="none" stroke="black" d="M285.14,-281C296.2,-271.2 308.66,-260.17 320.83,-249.39"/>
<text text-anchor="middle" x="319.33" y="-243.79" font-family="Helvetica,sans-Serif" font-size="7.00"> </text>
<text text-anchor="middle" x="286.64" y="-275.4" font-family="Helvetica,sans-Serif" font-size="7.00"> </text>
</g>
<!-- storage -->
<g id="node5" class="node">
<title>storage</title>
<text text-anchor="start" x="131" y="-311.4" font-family="Helvetica,sans-Serif" font-weight="bold" font-size="7.00">storage</text>
<text text-anchor="start" x="124" y="-298.4" font-family="Helvetica,sans-Serif" font-size="7.00">&#45; account_id</text>
<text text-anchor="start" x="124" y="-286.4" font-family="Helvetica,sans-Serif" font-size="7.00">&#45; root</text>
<text text-anchor="start" x="124" y="-274.4" font-family="Helvetica,sans-Serif" font-size="7.00">&#45; type</text>
<text text-anchor="start" x="124" y="-262.4" font-family="Helvetica,sans-Serif" font-size="7.00">&#45; region</text>
<text text-anchor="start" x="124" y="-250.4" font-family="Helvetica,sans-Serif" font-size="7.00">&#45; created_at</text>
<text text-anchor="start" x="124" y="-238.4" font-family="Helvetica,sans-Serif" font-size="7.00">&#45; updated_at</text>
<path fill="none" stroke="black" d="M133,-233C133,-233 155,-233 155,-233 161,-233 167,-239 167,-245 167,-245 167,-307 167,-307 167,-313 161,-319 155,-319 155,-319 133,-319 133,-319 127,-319 121,-313 121,-307 121,-307 121,-245 121,-245 121,-239 127,-233 133,-233"/>
</g>
<!-- storage&#45;&gt;account -->
<g id="edge3" class="edge">
<title>storage&#45;&gt;account</title>
<path fill="none" stroke="black" d="M175.05,-286.9C186.22,-290.95 199,-295.59 210.67,-299.82"/>
<text text-anchor="middle" x="209.17" y="-294.22" font-family="Helvetica,sans-Serif" font-size="7.00"> </text>
<text text-anchor="middle" x="176.55" y="-281.3" font-family="Helvetica,sans-Serif" font-size="7.00"> </text>
</g>
<!-- instance -->
<g id="node6" class="node">
<title>instance</title>
<text text-anchor="start" x="24" y="-355.4" font-family="Helvetica,sans-Serif" font-weight="bold" font-size="7.00">instance</text>
<text text-anchor="start" x="17.5" y="-342.4" font-family="Helvetica,sans-Serif" font-size="7.00">&#45; account_id</text>
<text text-anchor="start" x="17.5" y="-330.4" font-family="Helvetica,sans-Serif" font-size="7.00">&#45; name</text>
<text text-anchor="start" x="17.5" y="-318.4" font-family="Helvetica,sans-Serif" font-size="7.00">&#45; storage_id</text>
<text text-anchor="start" x="17.5" y="-306.4" font-family="Helvetica,sans-Serif" font-size="7.00">&#45; db</text>
<text text-anchor="start" x="17.5" y="-294.4" font-family="Helvetica,sans-Serif" font-size="7.00">&#45; schema_str</text>
<text text-anchor="start" x="17.5" y="-282.4" font-family="Helvetica,sans-Serif" font-size="7.00">&#45; created_at</text>
<text text-anchor="start" x="17.5" y="-270.4" font-family="Helvetica,sans-Serif" font-size="7.00">&#45; updated_at</text>
<path fill="none" stroke="black" d="M26.5,-265C26.5,-265 50.5,-265 50.5,-265 56.5,-265 62.5,-271 62.5,-277 62.5,-277 62.5,-351 62.5,-351 62.5,-357 56.5,-363 50.5,-363 50.5,-363 26.5,-363 26.5,-363 20.5,-363 14.5,-357 14.5,-351 14.5,-351 14.5,-277 14.5,-277 14.5,-271 20.5,-265 26.5,-265"/>
</g>
<!-- instance&#45;&gt;account -->
<g id="edge5" class="edge">
<title>instance&#45;&gt;account</title>
<path fill="none" stroke="black" d="M70.67,-323.39C83.63,-326.83 98.91,-330.3 113,-332 140.36,-335.3 147.67,-335.54 175,-332 186.79,-330.47 199.41,-327.59 210.73,-324.52"/>
<text text-anchor="middle" x="209.23" y="-318.92" font-family="Helvetica,sans-Serif" font-size="7.00"> </text>
<text text-anchor="middle" x="72.17" y="-317.79" font-family="Helvetica,sans-Serif" font-size="7.00"> </text>
</g>
<!-- instance&#45;&gt;storage -->
<g id="edge4" class="edge">
<title>instance&#45;&gt;storage</title>
<path fill="none" stroke="black" d="M70.55,-302.6C83.89,-297.7 99.43,-292 112.68,-287.13"/>
<text text-anchor="middle" x="111.18" y="-281.53" font-family="Helvetica,sans-Serif" font-size="7.00"> </text>
<text text-anchor="middle" x="72.05" y="-297" font-family="Helvetica,sans-Serif" font-size="7.00"> </text>
</g>
</g>
</svg>
