<?xml version="1.0" encoding="UTF-8" standalone="no"?>
<!DOCTYPE svg PUBLIC "-//W3C//DTD SVG 1.1//EN"
 "http://www.w3.org/Graphics/SVG/1.1/DTD/svg11.dtd">
<!-- Generated by graphviz version 6.0.1 (20220911.1526)
 -->
<!-- Title: G Pages: 1 -->
<svg width="449pt" height="556pt"
 viewBox="0.00 0.00 449.00 556.00" xmlns="http://www.w3.org/2000/svg" xmlns:xlink="http://www.w3.org/1999/xlink">
<g id="graph0" class="graph" transform="scale(1 1) rotate(0) translate(4 552)">
<title>G</title>
<polygon fill="white" stroke="none" points="-4,4 -4,-552 445,-552 445,4 -4,4"/>
<!-- migration_cbwk -->
<g id="node1" class="node">
<title>migration_cbwk</title>
<text text-anchor="start" x="11.5" y="-156.4" font-family="Helvetica,sans-Serif" font-weight="bold" font-size="7.00">migration_cbwk</text>
<text text-anchor="start" x="11.5" y="-143.4" font-family="Helvetica,sans-Serif" font-size="7.00">&#45; version_num</text>
<path fill="none" stroke="black" d="M16.67,-138C16.67,-138 60.33,-138 60.33,-138 64.67,-138 69,-142.33 69,-146.67 69,-146.67 69,-155.33 69,-155.33 69,-159.67 64.67,-164 60.33,-164 60.33,-164 16.67,-164 16.67,-164 12.33,-164 8,-159.67 8,-155.33 8,-155.33 8,-146.67 8,-146.67 8,-142.33 12.33,-138 16.67,-138"/>
</g>
<!-- account_instance -->
<g id="node2" class="node">
<title>account_instance</title>
<text text-anchor="start" x="351" y="-536.4" font-family="Helvetica,sans-Serif" font-weight="bold" font-size="7.00">account_instance</text>
<text text-anchor="start" x="351" y="-523.4" font-family="Helvetica,sans-Serif" font-size="7.00">&#45; account_id</text>
<text text-anchor="start" x="351" y="-511.4" font-family="Helvetica,sans-Serif" font-size="7.00">&#45; instance_id</text>
<text text-anchor="start" x="351" y="-499.4" font-family="Helvetica,sans-Serif" font-size="7.00">&#45; permission</text>
<text text-anchor="start" x="351" y="-487.4" font-family="Helvetica,sans-Serif" font-size="7.00">&#45; created_at</text>
<text text-anchor="start" x="351" y="-475.4" font-family="Helvetica,sans-Serif" font-size="7.00">&#45; updated_at</text>
<path fill="none" stroke="black" d="M360,-470C360,-470 402,-470 402,-470 408,-470 414,-476 414,-482 414,-482 414,-532 414,-532 414,-538 408,-544 402,-544 402,-544 360,-544 360,-544 354,-544 348,-538 348,-532 348,-532 348,-482 348,-482 348,-476 354,-470 360,-470"/>
</g>
<!-- account -->
<g id="node3" class="node">
<title>account</title>
<text text-anchor="start" x="234" y="-322.4" font-family="Helvetica,sans-Serif" font-weight="bold" font-size="7.00">account</text>
<text text-anchor="start" x="222" y="-309.4" font-family="Helvetica,sans-Serif" font-size="7.00">&#45; lnid</text>
<text text-anchor="start" x="222" y="-297.4" font-family="Helvetica,sans-Serif" font-size="7.00">&#45; handle</text>
<text text-anchor="start" x="222" y="-285.4" font-family="Helvetica,sans-Serif" font-size="7.00">&#45; name</text>
<text text-anchor="start" x="222" y="-273.4" font-family="Helvetica,sans-Serif" font-size="7.00">&#45; bio</text>
<text text-anchor="start" x="222" y="-261.4" font-family="Helvetica,sans-Serif" font-size="7.00">&#45; website</text>
<text text-anchor="start" x="222" y="-249.4" font-family="Helvetica,sans-Serif" font-size="7.00">&#45; github_handle</text>
<text text-anchor="start" x="222" y="-237.4" font-family="Helvetica,sans-Serif" font-size="7.00">&#45; twitter_handle</text>
<text text-anchor="start" x="222" y="-225.4" font-family="Helvetica,sans-Serif" font-size="7.00">&#45; linkedin_handle</text>
<text text-anchor="start" x="222" y="-213.4" font-family="Helvetica,sans-Serif" font-size="7.00">&#45; created_at</text>
<text text-anchor="start" x="222" y="-201.4" font-family="Helvetica,sans-Serif" font-size="7.00">&#45; updated_at</text>
<text text-anchor="start" x="222" y="-189.4" font-family="Helvetica,sans-Serif" font-size="7.00">&#45; user_id</text>
<text text-anchor="start" x="222" y="-177.4" font-family="Helvetica,sans-Serif" font-size="7.00">&#45; avatar_url</text>
<path fill="none" stroke="black" d="M231,-172C231,-172 265,-172 265,-172 271,-172 277,-178 277,-184 277,-184 277,-318 277,-318 277,-324 271,-330 265,-330 265,-330 231,-330 231,-330 225,-330 219,-324 219,-318 219,-318 219,-184 219,-184 219,-178 225,-172 231,-172"/>
</g>
<!-- account&#45;&gt;account_instance -->
<g id="edge1" class="edge">
<title>account&#45;&gt;account_instance</title>
<path fill="none" stroke="black" d="M267.21,-334.18C278.48,-373.71 295.74,-420.23 321,-457 326.25,-464.64 332.95,-471.79 339.95,-478.16"/>
<text text-anchor="middle" x="338.45" y="-472.56" font-family="Helvetica,sans-Serif" font-size="7.00"> </text>
<text text-anchor="middle" x="265.71" y="-336.58" font-family="Helvetica,sans-Serif" font-size="7.00"> </text>
</g>
<!-- users -->
<g id="node4" class="node">
<title>users</title>
<text text-anchor="start" x="371.5" y="-436.4" font-family="Helvetica,sans-Serif" font-weight="bold" font-size="7.00">users</text>
<text text-anchor="start" x="332" y="-423.4" font-family="Helvetica,sans-Serif" font-size="7.00">&#45; instance_id</text>
<text text-anchor="start" x="332" y="-411.4" font-family="Helvetica,sans-Serif" font-size="7.00">&#45; aud</text>
<text text-anchor="start" x="332" y="-399.4" font-family="Helvetica,sans-Serif" font-size="7.00">&#45; role</text>
<text text-anchor="start" x="332" y="-387.4" font-family="Helvetica,sans-Serif" font-size="7.00">&#45; email</text>
<text text-anchor="start" x="332" y="-375.4" font-family="Helvetica,sans-Serif" font-size="7.00">&#45; encrypted_password</text>
<text text-anchor="start" x="332" y="-363.4" font-family="Helvetica,sans-Serif" font-size="7.00">&#45; email_confirmed_at</text>
<text text-anchor="start" x="332" y="-351.4" font-family="Helvetica,sans-Serif" font-size="7.00">&#45; invited_at</text>
<text text-anchor="start" x="332" y="-339.4" font-family="Helvetica,sans-Serif" font-size="7.00">&#45; confirmation_token</text>
<text text-anchor="start" x="332" y="-327.4" font-family="Helvetica,sans-Serif" font-size="7.00">&#45; confirmation_sent_at</text>
<text text-anchor="start" x="332" y="-315.4" font-family="Helvetica,sans-Serif" font-size="7.00">&#45; recovery_token</text>
<text text-anchor="start" x="332" y="-303.4" font-family="Helvetica,sans-Serif" font-size="7.00">&#45; recovery_sent_at</text>
<text text-anchor="start" x="332" y="-291.4" font-family="Helvetica,sans-Serif" font-size="7.00">&#45; email_change_token_new</text>
<text text-anchor="start" x="332" y="-279.4" font-family="Helvetica,sans-Serif" font-size="7.00">&#45; email_change</text>
<text text-anchor="start" x="332" y="-267.4" font-family="Helvetica,sans-Serif" font-size="7.00">&#45; email_change_sent_at</text>
<text text-anchor="start" x="332" y="-255.4" font-family="Helvetica,sans-Serif" font-size="7.00">&#45; last_sign_in_at</text>
<text text-anchor="start" x="332" y="-243.4" font-family="Helvetica,sans-Serif" font-size="7.00">&#45; raw_app_meta_data</text>
<text text-anchor="start" x="332" y="-231.4" font-family="Helvetica,sans-Serif" font-size="7.00">&#45; raw_user_meta_data</text>
<text text-anchor="start" x="332" y="-219.4" font-family="Helvetica,sans-Serif" font-size="7.00">&#45; is_super_admin</text>
<text text-anchor="start" x="332" y="-207.4" font-family="Helvetica,sans-Serif" font-size="7.00">&#45; created_at</text>
<text text-anchor="start" x="332" y="-195.4" font-family="Helvetica,sans-Serif" font-size="7.00">&#45; updated_at</text>
<text text-anchor="start" x="332" y="-183.4" font-family="Helvetica,sans-Serif" font-size="7.00">&#45; phone</text>
<text text-anchor="start" x="332" y="-171.4" font-family="Helvetica,sans-Serif" font-size="7.00">&#45; phone_confirmed_at</text>
<text text-anchor="start" x="332" y="-159.4" font-family="Helvetica,sans-Serif" font-size="7.00">&#45; phone_change</text>
<text text-anchor="start" x="332" y="-147.4" font-family="Helvetica,sans-Serif" font-size="7.00">&#45; phone_change_token</text>
<text text-anchor="start" x="332" y="-135.4" font-family="Helvetica,sans-Serif" font-size="7.00">&#45; phone_change_sent_at</text>
<text text-anchor="start" x="332" y="-123.4" font-family="Helvetica,sans-Serif" font-size="7.00">&#45; confirmed_at</text>
<text text-anchor="start" x="332" y="-111.4" font-family="Helvetica,sans-Serif" font-size="7.00">&#45; email_change_token_current</text>
<text text-anchor="start" x="332" y="-99.4" font-family="Helvetica,sans-Serif" font-size="7.00">&#45; email_change_confirm_status</text>
<text text-anchor="start" x="332" y="-87.4" font-family="Helvetica,sans-Serif" font-size="7.00">&#45; banned_until</text>
<text text-anchor="start" x="332" y="-75.4" font-family="Helvetica,sans-Serif" font-size="7.00">&#45; reauthentication_token</text>
<text text-anchor="start" x="332" y="-63.4" font-family="Helvetica,sans-Serif" font-size="7.00">&#45; reauthentication_sent_at</text>
<path fill="none" stroke="black" d="M341,-58C341,-58 421,-58 421,-58 427,-58 433,-64 433,-70 433,-70 433,-432 433,-432 433,-438 427,-444 421,-444 421,-444 341,-444 341,-444 335,-444 329,-438 329,-432 329,-432 329,-70 329,-70 329,-64 335,-58 341,-58"/>
</g>
<!-- account&#45;&gt;users -->
<g id="edge2" class="edge">
<title>account&#45;&gt;users</title>
<path fill="none" stroke="black" d="M285.14,-251C296.2,-251 308.66,-251 320.83,-251"/>
<text text-anchor="middle" x="319.33" y="-245.4" font-family="Helvetica,sans-Serif" font-size="7.00"> </text>
<text text-anchor="middle" x="286.64" y="-245.4" font-family="Helvetica,sans-Serif" font-size="7.00"> </text>
</g>
<!-- organization -->
<g id="node5" class="node">
<title>organization</title>
<text text-anchor="start" x="359" y="-17.4" font-family="Helvetica,sans-Serif" font-weight="bold" font-size="7.00">organization</text>
<path fill="none" stroke="black" d="M360.67,-11C360.67,-11 401.33,-11 401.33,-11 403.67,-11 406,-13.33 406,-15.67 406,-15.67 406,-20.33 406,-20.33 406,-22.67 403.67,-25 401.33,-25 401.33,-25 360.67,-25 360.67,-25 358.33,-25 356,-22.67 356,-20.33 356,-20.33 356,-15.67 356,-15.67 356,-13.33 358.33,-11 360.67,-11"/>
</g>
<!-- account&#45;&gt;organization -->
<g id="edge3" class="edge">
<title>account&#45;&gt;organization</title>
<path fill="none" stroke="black" d="M262.19,-167.83C272.35,-126.76 290.13,-78.89 321,-45 328.21,-37.09 338.19,-31.33 347.9,-27.22"/>
<text text-anchor="middle" x="346.4" y="-21.62" font-family="Helvetica,sans-Serif" font-size="7.00"> </text>
<text text-anchor="middle" x="260.69" y="-162.23" font-family="Helvetica,sans-Serif" font-size="7.00"> </text>
</g>
<!-- storage -->
<g id="node6" class="node">
<title>storage</title>
<text text-anchor="start" x="131" y="-249.4" font-family="Helvetica,sans-Serif" font-weight="bold" font-size="7.00">storage</text>
<text text-anchor="start" x="124" y="-236.4" font-family="Helvetica,sans-Serif" font-size="7.00">&#45; account_id</text>
<text text-anchor="start" x="124" y="-224.4" font-family="Helvetica,sans-Serif" font-size="7.00">&#45; root</text>
<text text-anchor="start" x="124" y="-212.4" font-family="Helvetica,sans-Serif" font-size="7.00">&#45; type</text>
<text text-anchor="start" x="124" y="-200.4" font-family="Helvetica,sans-Serif" font-size="7.00">&#45; region</text>
<text text-anchor="start" x="124" y="-188.4" font-family="Helvetica,sans-Serif" font-size="7.00">&#45; created_at</text>
<text text-anchor="start" x="124" y="-176.4" font-family="Helvetica,sans-Serif" font-size="7.00">&#45; updated_at</text>
<path fill="none" stroke="black" d="M133,-171C133,-171 155,-171 155,-171 161,-171 167,-177 167,-183 167,-183 167,-245 167,-245 167,-251 161,-257 155,-257 155,-257 133,-257 133,-257 127,-257 121,-251 121,-245 121,-245 121,-183 121,-183 121,-177 127,-171 133,-171"/>
</g>
<!-- storage&#45;&gt;account -->
<g id="edge4" class="edge">
<title>storage&#45;&gt;account</title>
<path fill="none" stroke="black" d="M175.05,-224.9C186.22,-228.95 199,-233.59 210.67,-237.82"/>
<text text-anchor="middle" x="209.17" y="-232.22" font-family="Helvetica,sans-Serif" font-size="7.00"> </text>
<text text-anchor="middle" x="176.55" y="-219.3" font-family="Helvetica,sans-Serif" font-size="7.00"> </text>
</g>
<!-- instance -->
<g id="node7" class="node">
<title>instance</title>
<text text-anchor="start" x="24" y="-305.4" font-family="Helvetica,sans-Serif" font-weight="bold" font-size="7.00">instance</text>
<text text-anchor="start" x="17.5" y="-292.4" font-family="Helvetica,sans-Serif" font-size="7.00">&#45; account_id</text>
<text text-anchor="start" x="17.5" y="-280.4" font-family="Helvetica,sans-Serif" font-size="7.00">&#45; name</text>
<text text-anchor="start" x="17.5" y="-268.4" font-family="Helvetica,sans-Serif" font-size="7.00">&#45; storage_id</text>
<text text-anchor="start" x="17.5" y="-256.4" font-family="Helvetica,sans-Serif" font-size="7.00">&#45; db</text>
<text text-anchor="start" x="17.5" y="-244.4" font-family="Helvetica,sans-Serif" font-size="7.00">&#45; schema_str</text>
<text text-anchor="start" x="17.5" y="-232.4" font-family="Helvetica,sans-Serif" font-size="7.00">&#45; created_at</text>
<text text-anchor="start" x="17.5" y="-220.4" font-family="Helvetica,sans-Serif" font-size="7.00">&#45; updated_at</text>
<text text-anchor="start" x="17.5" y="-208.4" font-family="Helvetica,sans-Serif" font-size="7.00">&#45; description</text>
<text text-anchor="start" x="17.5" y="-196.4" font-family="Helvetica,sans-Serif" font-size="7.00">&#45; public</text>
<path fill="none" stroke="black" d="M26.5,-191C26.5,-191 50.5,-191 50.5,-191 56.5,-191 62.5,-197 62.5,-203 62.5,-203 62.5,-301 62.5,-301 62.5,-307 56.5,-313 50.5,-313 50.5,-313 26.5,-313 26.5,-313 20.5,-313 14.5,-307 14.5,-301 14.5,-301 14.5,-203 14.5,-203 14.5,-197 20.5,-191 26.5,-191"/>
</g>
<!-- instance&#45;&gt;account -->
<g id="edge6" class="edge">
<title>instance&#45;&gt;account</title>
<path fill="none" stroke="black" d="M70.67,-261.39C83.63,-264.83 98.91,-268.3 113,-270 140.36,-273.3 147.67,-273.54 175,-270 186.79,-268.47 199.41,-265.59 210.73,-262.52"/>
<text text-anchor="middle" x="209.23" y="-256.92" font-family="Helvetica,sans-Serif" font-size="7.00"> </text>
<text text-anchor="middle" x="72.17" y="-255.79" font-family="Helvetica,sans-Serif" font-size="7.00"> </text>
</g>
<!-- instance&#45;&gt;storage -->
<g id="edge5" class="edge">
<title>instance&#45;&gt;storage</title>
<path fill="none" stroke="black" d="M70.55,-240.6C83.89,-235.7 99.43,-230 112.68,-225.13"/>
<text text-anchor="middle" x="111.18" y="-219.53" font-family="Helvetica,sans-Serif" font-size="7.00"> </text>
<text text-anchor="middle" x="72.05" y="-235" font-family="Helvetica,sans-Serif" font-size="7.00"> </text>
</g>
</g>
</svg>
