<?xml version="1.0" encoding="UTF-8" standalone="no"?>
<!DOCTYPE svg PUBLIC "-//W3C//DTD SVG 1.1//EN"
 "http://www.w3.org/Graphics/SVG/1.1/DTD/svg11.dtd">
<!-- Generated by graphviz version 6.0.1 (20220911.1526)
 -->
<!-- Title: G Pages: 1 -->
<svg width="449pt" height="556pt"
 viewBox="0.00 0.00 449.00 556.00" xmlns="http://www.w3.org/2000/svg" xmlns:xlink="http://www.w3.org/1999/xlink">
<g id="graph0" class="graph" transform="scale(1 1) rotate(0) translate(4 552)">
<title>G</title>
<polygon fill="white" stroke="none" points="-4,4 -4,-552 445,-552 445,4 -4,4"/>
<!-- migration_cbwk -->
<g id="node1" class="node">
<title>migration_cbwk</title>
<text text-anchor="start" x="11.5" y="-292.4" font-family="Helvetica,sans-Serif" font-weight="bold" font-size="7.00">migration_cbwk</text>
<text text-anchor="start" x="11.5" y="-279.4" font-family="Helvetica,sans-Serif" font-size="7.00">&#45; version_num</text>
<path fill="none" stroke="black" d="M16.67,-274C16.67,-274 60.33,-274 60.33,-274 64.67,-274 69,-278.33 69,-282.67 69,-282.67 69,-291.33 69,-291.33 69,-295.67 64.67,-300 60.33,-300 60.33,-300 16.67,-300 16.67,-300 12.33,-300 8,-295.67 8,-291.33 8,-291.33 8,-282.67 8,-282.67 8,-278.33 12.33,-274 16.67,-274"/>
</g>
<!-- account_instance -->
<g id="node2" class="node">
<title>account_instance</title>
<text text-anchor="start" x="351" y="-536.4" font-family="Helvetica,sans-Serif" font-weight="bold" font-size="7.00">account_instance</text>
<text text-anchor="start" x="351" y="-523.4" font-family="Helvetica,sans-Serif" font-size="7.00">&#45; account_id</text>
<text text-anchor="start" x="351" y="-511.4" font-family="Helvetica,sans-Serif" font-size="7.00">&#45; instance_id</text>
<text text-anchor="start" x="351" y="-499.4" font-family="Helvetica,sans-Serif" font-size="7.00">&#45; permission</text>
<text text-anchor="start" x="351" y="-487.4" font-family="Helvetica,sans-Serif" font-size="7.00">&#45; created_at</text>
<text text-anchor="start" x="351" y="-475.4" font-family="Helvetica,sans-Serif" font-size="7.00">&#45; updated_at</text>
<path fill="none" stroke="black" d="M360,-470C360,-470 402,-470 402,-470 408,-470 414,-476 414,-482 414,-482 414,-532 414,-532 414,-538 408,-544 402,-544 402,-544 360,-544 360,-544 354,-544 348,-538 348,-532 348,-532 348,-482 348,-482 348,-476 354,-470 360,-470"/>
</g>
<!-- account -->
<g id="node3" class="node">
<title>account</title>
<text text-anchor="start" x="234" y="-394.4" font-family="Helvetica,sans-Serif" font-weight="bold" font-size="7.00">account</text>
<text text-anchor="start" x="222" y="-381.4" font-family="Helvetica,sans-Serif" font-size="7.00">&#45; lnid</text>
<text text-anchor="start" x="222" y="-369.4" font-family="Helvetica,sans-Serif" font-size="7.00">&#45; handle</text>
<text text-anchor="start" x="222" y="-357.4" font-family="Helvetica,sans-Serif" font-size="7.00">&#45; name</text>
<text text-anchor="start" x="222" y="-345.4" font-family="Helvetica,sans-Serif" font-size="7.00">&#45; bio</text>
<text text-anchor="start" x="222" y="-333.4" font-family="Helvetica,sans-Serif" font-size="7.00">&#45; website</text>
<text text-anchor="start" x="222" y="-321.4" font-family="Helvetica,sans-Serif" font-size="7.00">&#45; github_handle</text>
<text text-anchor="start" x="222" y="-309.4" font-family="Helvetica,sans-Serif" font-size="7.00">&#45; twitter_handle</text>
<text text-anchor="start" x="222" y="-297.4" font-family="Helvetica,sans-Serif" font-size="7.00">&#45; linkedin_handle</text>
<text text-anchor="start" x="222" y="-285.4" font-family="Helvetica,sans-Serif" font-size="7.00">&#45; created_at</text>
<text text-anchor="start" x="222" y="-273.4" font-family="Helvetica,sans-Serif" font-size="7.00">&#45; updated_at</text>
<text text-anchor="start" x="222" y="-261.4" font-family="Helvetica,sans-Serif" font-size="7.00">&#45; user_id</text>
<text text-anchor="start" x="222" y="-249.4" font-family="Helvetica,sans-Serif" font-size="7.00">&#45; avatar_url</text>
<path fill="none" stroke="black" d="M231,-244C231,-244 265,-244 265,-244 271,-244 277,-250 277,-256 277,-256 277,-390 277,-390 277,-396 271,-402 265,-402 265,-402 231,-402 231,-402 225,-402 219,-396 219,-390 219,-390 219,-256 219,-256 219,-250 225,-244 231,-244"/>
</g>
<!-- account&#45;&gt;account_instance -->
<g id="edge1" class="edge">
<title>account&#45;&gt;account_instance</title>
<path fill="none" stroke="black" d="M285.07,-401.93C295.39,-420.85 307.54,-440.37 321,-457 326.57,-463.89 333.2,-470.55 339.96,-476.64"/>
<text text-anchor="middle" x="338.46" y="-471.04" font-family="Helvetica,sans-Serif" font-size="7.00"> </text>
<text text-anchor="middle" x="286.57" y="-396.33" font-family="Helvetica,sans-Serif" font-size="7.00"> </text>
</g>
<!-- users -->
<g id="node4" class="node">
<title>users</title>
<text text-anchor="start" x="371.5" y="-436.4" font-family="Helvetica,sans-Serif" font-weight="bold" font-size="7.00">users</text>
<text text-anchor="start" x="332" y="-423.4" font-family="Helvetica,sans-Serif" font-size="7.00">&#45; instance_id</text>
<text text-anchor="start" x="332" y="-411.4" font-family="Helvetica,sans-Serif" font-size="7.00">&#45; aud</text>
<text text-anchor="start" x="332" y="-399.4" font-family="Helvetica,sans-Serif" font-size="7.00">&#45; role</text>
<text text-anchor="start" x="332" y="-387.4" font-family="Helvetica,sans-Serif" font-size="7.00">&#45; email</text>
<text text-anchor="start" x="332" y="-375.4" font-family="Helvetica,sans-Serif" font-size="7.00">&#45; encrypted_password</text>
<text text-anchor="start" x="332" y="-363.4" font-family="Helvetica,sans-Serif" font-size="7.00">&#45; email_confirmed_at</text>
<text text-anchor="start" x="332" y="-351.4" font-family="Helvetica,sans-Serif" font-size="7.00">&#45; invited_at</text>
<text text-anchor="start" x="332" y="-339.4" font-family="Helvetica,sans-Serif" font-size="7.00">&#45; confirmation_token</text>
<text text-anchor="start" x="332" y="-327.4" font-family="Helvetica,sans-Serif" font-size="7.00">&#45; confirmation_sent_at</text>
<text text-anchor="start" x="332" y="-315.4" font-family="Helvetica,sans-Serif" font-size="7.00">&#45; recovery_token</text>
<text text-anchor="start" x="332" y="-303.4" font-family="Helvetica,sans-Serif" font-size="7.00">&#45; recovery_sent_at</text>
<text text-anchor="start" x="332" y="-291.4" font-family="Helvetica,sans-Serif" font-size="7.00">&#45; email_change_token_new</text>
<text text-anchor="start" x="332" y="-279.4" font-family="Helvetica,sans-Serif" font-size="7.00">&#45; email_change</text>
<text text-anchor="start" x="332" y="-267.4" font-family="Helvetica,sans-Serif" font-size="7.00">&#45; email_change_sent_at</text>
<text text-anchor="start" x="332" y="-255.4" font-family="Helvetica,sans-Serif" font-size="7.00">&#45; last_sign_in_at</text>
<text text-anchor="start" x="332" y="-243.4" font-family="Helvetica,sans-Serif" font-size="7.00">&#45; raw_app_meta_data</text>
<text text-anchor="start" x="332" y="-231.4" font-family="Helvetica,sans-Serif" font-size="7.00">&#45; raw_user_meta_data</text>
<text text-anchor="start" x="332" y="-219.4" font-family="Helvetica,sans-Serif" font-size="7.00">&#45; is_super_admin</text>
<text text-anchor="start" x="332" y="-207.4" font-family="Helvetica,sans-Serif" font-size="7.00">&#45; created_at</text>
<text text-anchor="start" x="332" y="-195.4" font-family="Helvetica,sans-Serif" font-size="7.00">&#45; updated_at</text>
<text text-anchor="start" x="332" y="-183.4" font-family="Helvetica,sans-Serif" font-size="7.00">&#45; phone</text>
<text text-anchor="start" x="332" y="-171.4" font-family="Helvetica,sans-Serif" font-size="7.00">&#45; phone_confirmed_at</text>
<text text-anchor="start" x="332" y="-159.4" font-family="Helvetica,sans-Serif" font-size="7.00">&#45; phone_change</text>
<text text-anchor="start" x="332" y="-147.4" font-family="Helvetica,sans-Serif" font-size="7.00">&#45; phone_change_token</text>
<text text-anchor="start" x="332" y="-135.4" font-family="Helvetica,sans-Serif" font-size="7.00">&#45; phone_change_sent_at</text>
<text text-anchor="start" x="332" y="-123.4" font-family="Helvetica,sans-Serif" font-size="7.00">&#45; confirmed_at</text>
<text text-anchor="start" x="332" y="-111.4" font-family="Helvetica,sans-Serif" font-size="7.00">&#45; email_change_token_current</text>
<text text-anchor="start" x="332" y="-99.4" font-family="Helvetica,sans-Serif" font-size="7.00">&#45; email_change_confirm_status</text>
<text text-anchor="start" x="332" y="-87.4" font-family="Helvetica,sans-Serif" font-size="7.00">&#45; banned_until</text>
<text text-anchor="start" x="332" y="-75.4" font-family="Helvetica,sans-Serif" font-size="7.00">&#45; reauthentication_token</text>
<text text-anchor="start" x="332" y="-63.4" font-family="Helvetica,sans-Serif" font-size="7.00">&#45; reauthentication_sent_at</text>
<path fill="none" stroke="black" d="M341,-58C341,-58 421,-58 421,-58 427,-58 433,-64 433,-70 433,-70 433,-432 433,-432 433,-438 427,-444 421,-444 421,-444 341,-444 341,-444 335,-444 329,-438 329,-432 329,-432 329,-70 329,-70 329,-64 335,-58 341,-58"/>
</g>
<!-- account&#45;&gt;users -->
<g id="edge3" class="edge">
<title>account&#45;&gt;users</title>
<path fill="none" stroke="black" d="M285.14,-303.14C296.2,-297.06 308.66,-290.21 320.83,-283.52"/>
<text text-anchor="middle" x="319.33" y="-277.92" font-family="Helvetica,sans-Serif" font-size="7.00"> </text>
<text text-anchor="middle" x="286.64" y="-297.54" font-family="Helvetica,sans-Serif" font-size="7.00"> </text>
</g>
<!-- organization -->
<g id="node7" class="node">
<title>organization</title>
<text text-anchor="start" x="359" y="-17.4" font-family="Helvetica,sans-Serif" font-weight="bold" font-size="7.00">organization</text>
<path fill="none" stroke="black" d="M360.67,-11C360.67,-11 401.33,-11 401.33,-11 403.67,-11 406,-13.33 406,-15.67 406,-15.67 406,-20.33 406,-20.33 406,-22.67 403.67,-25 401.33,-25 401.33,-25 360.67,-25 360.67,-25 358.33,-25 356,-22.67 356,-20.33 356,-20.33 356,-15.67 356,-15.67 356,-13.33 358.33,-11 360.67,-11"/>
</g>
<!-- account&#45;&gt;organization -->
<g id="edge7" class="edge">
<title>account&#45;&gt;organization</title>
<path fill="none" stroke="black" d="M251.97,-239.95C258.17,-179.7 275.29,-99.55 321,-45 327.95,-36.71 337.98,-30.84 347.81,-26.74"/>
<text text-anchor="middle" x="346.31" y="-21.14" font-family="Helvetica,sans-Serif" font-size="7.00"> </text>
<text text-anchor="middle" x="250.47" y="-234.35" font-family="Helvetica,sans-Serif" font-size="7.00"> </text>
</g>
<!-- instance -->
<g id="node5" class="node">
<title>instance</title>
<text text-anchor="start" x="24" y="-441.4" font-family="Helvetica,sans-Serif" font-weight="bold" font-size="7.00">instance</text>
<text text-anchor="start" x="17.5" y="-428.4" font-family="Helvetica,sans-Serif" font-size="7.00">&#45; account_id</text>
<text text-anchor="start" x="17.5" y="-416.4" font-family="Helvetica,sans-Serif" font-size="7.00">&#45; name</text>
<text text-anchor="start" x="17.5" y="-404.4" font-family="Helvetica,sans-Serif" font-size="7.00">&#45; storage_id</text>
<text text-anchor="start" x="17.5" y="-392.4" font-family="Helvetica,sans-Serif" font-size="7.00">&#45; db</text>
<text text-anchor="start" x="17.5" y="-380.4" font-family="Helvetica,sans-Serif" font-size="7.00">&#45; schema_str</text>
<text text-anchor="start" x="17.5" y="-368.4" font-family="Helvetica,sans-Serif" font-size="7.00">&#45; created_at</text>
<text text-anchor="start" x="17.5" y="-356.4" font-family="Helvetica,sans-Serif" font-size="7.00">&#45; updated_at</text>
<text text-anchor="start" x="17.5" y="-344.4" font-family="Helvetica,sans-Serif" font-size="7.00">&#45; description</text>
<text text-anchor="start" x="17.5" y="-332.4" font-family="Helvetica,sans-Serif" font-size="7.00">&#45; public</text>
<path fill="none" stroke="black" d="M26.5,-327C26.5,-327 50.5,-327 50.5,-327 56.5,-327 62.5,-333 62.5,-339 62.5,-339 62.5,-437 62.5,-437 62.5,-443 56.5,-449 50.5,-449 50.5,-449 26.5,-449 26.5,-449 20.5,-449 14.5,-443 14.5,-437 14.5,-437 14.5,-339 14.5,-339 14.5,-333 20.5,-327 26.5,-327"/>
</g>
<!-- instance&#45;&gt;account_instance -->
<g id="edge2" class="edge">
<title>instance&#45;&gt;account_instance</title>
<path fill="none" stroke="black" d="M145,-434C216.08,-431.19 294.1,-462.91 339.98,-485.44"/>
<text text-anchor="middle" x="338.48" y="-479.84" font-family="Helvetica,sans-Serif" font-size="7.00"> </text>
<text text-anchor="middle" x="143.5" y="-428.4" font-family="Helvetica,sans-Serif" font-size="7.00"> </text>
</g>
<!-- instance&#45;&gt;account -->
<g id="edge4" class="edge">
<title>instance&#45;&gt;account</title>
<path fill="none" stroke="black" d="M145,-434C172.33,-432.92 194.34,-414.23 210.83,-392.48"/>
<path fill="none" stroke="black" d="M70.57,-410.64C90.36,-422.76 117.06,-435.03 143,-434"/>
<text text-anchor="middle" x="141.5" y="-436.4" font-family="Helvetica,sans-Serif" font-size="7.00"> </text>
<text text-anchor="middle" x="146.5" y="-428.4" font-family="Helvetica,sans-Serif" font-size="7.00"> </text>
</g>
<!-- storage -->
<g id="node6" class="node">
<title>storage</title>
<text text-anchor="start" x="131" y="-376.4" font-family="Helvetica,sans-Serif" font-weight="bold" font-size="7.00">storage</text>
<text text-anchor="start" x="124" y="-363.4" font-family="Helvetica,sans-Serif" font-size="7.00">&#45; account_id</text>
<text text-anchor="start" x="124" y="-351.4" font-family="Helvetica,sans-Serif" font-size="7.00">&#45; root</text>
<text text-anchor="start" x="124" y="-339.4" font-family="Helvetica,sans-Serif" font-size="7.00">&#45; type</text>
<text text-anchor="start" x="124" y="-327.4" font-family="Helvetica,sans-Serif" font-size="7.00">&#45; region</text>
<text text-anchor="start" x="124" y="-315.4" font-family="Helvetica,sans-Serif" font-size="7.00">&#45; created_at</text>
<text text-anchor="start" x="124" y="-303.4" font-family="Helvetica,sans-Serif" font-size="7.00">&#45; updated_at</text>
<path fill="none" stroke="black" d="M133,-298C133,-298 155,-298 155,-298 161,-298 167,-304 167,-310 167,-310 167,-372 167,-372 167,-378 161,-384 155,-384 155,-384 133,-384 133,-384 127,-384 121,-378 121,-372 121,-372 121,-310 121,-310 121,-304 127,-298 133,-298"/>
</g>
<!-- instance&#45;&gt;storage -->
<g id="edge5" class="edge">
<title>instance&#45;&gt;storage</title>
<path fill="none" stroke="black" d="M70.55,-373.9C83.89,-367.84 99.43,-360.79 112.68,-354.77"/>
<text text-anchor="middle" x="111.18" y="-349.17" font-family="Helvetica,sans-Serif" font-size="7.00"> </text>
<text text-anchor="middle" x="72.05" y="-368.3" font-family="Helvetica,sans-Serif" font-size="7.00"> </text>
</g>
<!-- storage&#45;&gt;account -->
<g id="edge6" class="edge">
<title>storage&#45;&gt;account</title>
<path fill="none" stroke="black" d="M175.05,-335.7C186.22,-333.73 199,-331.47 210.67,-329.41"/>
<text text-anchor="middle" x="209.17" y="-323.81" font-family="Helvetica,sans-Serif" font-size="7.00"> </text>
<text text-anchor="middle" x="176.55" y="-330.1" font-family="Helvetica,sans-Serif" font-size="7.00"> </text>
</g>
</g>
</svg>
