<?xml version="1.0" encoding="UTF-8"?>
<svg width="512pt" height="512pt" version="1.1" viewBox="0 0 512 512" xmlns="http://www.w3.org/2000/svg">
 <g fill="#007335">
  <path d="m260.68 267.25c-1.4492 0.015625-2.8008-0.73438-3.5508-1.9727-0.75-1.2422-0.79297-2.7852-0.10547-4.0625 0.12891-0.23828 10.406-20.113 13.348-53.688 3.0547-34.945 15.031-80.566 15.141-81.023 0.57422-2.082 2.6641-3.3672 4.7852-2.9375 2.1172 0.42969 3.543 2.4219 3.2617 4.5664 0 0.34766-4.8086 33.684-5.4844 59.812-0.71875 18.898-2.7656 37.727-6.125 56.336-0.48828 2.1641-2.5977 3.5547-4.7773 3.1445-2.1758-0.41016-3.6406-2.4688-3.3086-4.6602 0-0.23828 3.6562-19.348 5.2305-40.504-0.23047 2.0352-0.43359 4.0273-0.60156 5.9805-3.1094 35.438-13.824 55.973-14.262 56.832-0.70703 1.3125-2.0625 2.1406-3.5508 2.1758z"/>
  <path d="m281.12 227.36h-0.25781c-2.2578-0.13672-3.9805-2.0742-3.8555-4.332 0.51172-9.0156 26.332-57.324 31.508-66.906h-0.003906c1.0156-1.9141 3.3359-2.7148 5.3125-1.832 1.9805 0.88281 2.9336 3.1445 2.1875 5.1758-4.6641 12.945-16.879 48.75-17.445 58.754-0.027343 1.1133-0.50781 2.168-1.3281 2.9258-0.82031 0.75391-1.9102 1.1445-3.0234 1.0781-1.1133-0.0625-2.1523-0.57812-2.8789-1.4219-0.73047-0.84375-1.082-1.9492-0.98047-3.0586 0.46875-4.3984 1.3125-8.7461 2.5234-13-4.5547 9.582-7.5352 16.66-7.6602 18.742h-0.003906c-0.125 2.1719-1.918 3.8711-4.0938 3.875z"/>
  <path d="m238.83 275.8c-0.92188 0.007812-1.8203-0.30469-2.5391-0.87891-19.82-15.508-12.801-45.531-8.2461-65.391 0.32812-1.4141 0.64062-2.7656 0.93359-4.0586 4.0039-17.754 4.2773-91.996 4.2773-92.746 0.007813-1.8086 1.1953-3.3984 2.9258-3.918 1.7344-0.51953 3.6016 0.14844 4.6055 1.6523 5.4844 8.3555 24.102 148.21 23.973 149.16-0.36719 4.875-1.7109 9.625-3.9492 13.969-1.125 1.9766-3.6406 2.6641-5.6133 1.5352-1.9727-1.125-2.6602-3.6367-1.5352-5.6133 1.6328-3.2891 2.6133-6.8672 2.8867-10.531-0.62109-6.8008-9.1445-67.566-15.652-108.11-0.56641 21.762-1.6836 46.594-3.8945 56.41-0.29297 1.2969-0.60156 2.6875-0.93359 4.1133-4.1523 17.828-10.387 44.762 5.2852 57.051v0.003906c1.3477 1.0898 1.8711 2.9023 1.3047 4.543-0.5625 1.6367-2.0938 2.7461-3.8281 2.7695z"/>
  <path d="m272.77 224.91c-1.3164-0.023437-2.5703-0.5625-3.4922-1.5-5.1367-4.9727-10.715-41.727-12.434-64.512h-0.003906c-2.3867 6.0742-3.543 12.566-3.3984 19.09 0.078125 2.2734-1.6953 4.1797-3.9688 4.2617-2.2734 0.082032-4.1797-1.6953-4.2617-3.9688-0.73047-20.68 11.668-37.246 12.195-37.941 1.1406-1.6172 3.2734-2.1914 5.0703-1.3594 1.793 0.83203 2.7383 2.8242 2.2461 4.7422-2.0312 9.1445 5.7969 65.117 10.113 73.379 1.0508 0.54297 1.8242 1.5078 2.1211 2.6523 0.55078 2.2031-0.78125 4.4336-2.9805 4.9922-0.39453 0.11328-0.80078 0.16797-1.207 0.16406z"/>
  <path d="m227.51 244.3c-1.9375 0-3.6094-1.3438-4.0234-3.2344-3.457-16.145-3.6562-106.31-3.6562-110.14 0-2.1445 1.6484-3.9258 3.7852-4.0977 2.1367-0.19922 4.0586 1.3008 4.3867 3.4219 0.36719 2.2656 9.1445 55.57 9.6172 72.832 0.042968 1.0938-0.35547 2.1602-1.1055 2.957-0.75 0.80078-1.7852 1.2695-2.8789 1.3008-2.2617 0.042968-4.1445-1.7266-4.2422-3.9844 0-2.0117-0.25781-4.5898-0.53125-7.5508 0.53125 20.223 1.3516 37.707 2.5977 43.52 0.23437 1.0664 0.027343 2.1836-0.56641 3.0977-0.59375 0.91797-1.5273 1.5586-2.5977 1.7852-0.25781 0.058594-0.51953 0.089844-0.78516 0.089844z"/>
  <path d="m276.54 275.7c-1.8633-0.003906-3.4922-1.2578-3.9727-3.0547-0.47656-1.8008 0.30859-3.6992 1.9258-4.625 9.8008-5.6133 17.371-15.672 22.508-29.898 5.4062-14.496 11.715-28.641 18.891-42.352-10.094 13.164-20.555 27.555-28.086 39.77l-6.1992 10.023c-9.4727 15.453-14.629 23.953-19.238 28.801-0.74219 0.81641-1.7812 1.3008-2.8828 1.3438-1.1016 0.042969-2.1719-0.35938-2.9766-1.1133-0.80469-0.75391-1.2734-1.8008-1.2969-2.9023-0.027343-1.1016 0.39062-2.168 1.1602-2.9609 3.9688-4.2227 9.0312-12.473 18.285-27.43 1.8281-3.0703 3.9141-6.3984 6.1641-10.039 20.113-32.715 60.707-80.457 61.109-80.879v0.003906c1.4102-1.6328 3.8398-1.8984 5.5664-0.60937 1.7305 1.2852 2.1719 3.6914 1.0156 5.5078-0.29297 0.4375-29.367 45.715-43.758 85.668-5.8164 16.109-14.629 27.629-26.168 34.25-0.625 0.34375-1.332 0.51172-2.0469 0.49609z"/>
  <path d="m238.48 275.8c-0.63672-0.011719-1.2656-0.17188-1.8281-0.47656-15.598-8.1914-23.883-16.805-31.727-46.262-7.2188-26.863-26.438-66.598-28.469-69.98-1.2109-1.7461-0.88672-4.1289 0.75-5.4844 1.7305-1.4336 4.2891-1.2227 5.7617 0.47266 1.6289 1.8281 40.027 46.609 47.379 75.668h-0.003906c0.29688 1.0664 0.14844 2.2031-0.40625 3.1602-0.55469 0.95703-1.4727 1.6484-2.543 1.9219-1.0703 0.27344-2.207 0.10156-3.1523-0.47266-0.94531-0.57422-1.6172-1.5039-1.8711-2.582-3.2539-12.801-13.586-29.695-23.605-43.887v0.003907c5.5156 12.723 10.207 25.785 14.043 39.113 7.4258 27.887 14.426 34.195 27.594 41.105 1.6719 0.88281 2.5273 2.793 2.0742 4.6289-0.45703 1.8359-2.1016 3.125-3.9961 3.125z"/>
  <path d="m219.96 260.24c-1.5742-0.03125-2.9961-0.96094-3.6562-2.3945-10.461-22.801-46.355-60.344-48.695-62.465-1.6406-1.2031-2.0664-3.4766-0.96875-5.1914 1.1172-1.9062 3.5312-2.5977 5.4883-1.5742l0.45703 0.34766 0.64062 0.40234c11.32 7.4414 31.285 21.414 37.668 31.414 0.96094 1.5117 0.83203 3.4727-0.31641 4.8477-1.1484 1.375-3.0547 1.8477-4.7148 1.168 7.3125 9.6172 14.117 19.512 17.883 27.703 0.46484 0.99609 0.51172 2.1367 0.13281 3.168-0.38281 1.0312-1.1602 1.8633-2.1602 2.3164-0.55859 0.21484-1.1602 0.30469-1.7578 0.25781z"/>
  <path d="m343.04 311.5h-176.07c-2.2734 0-4.1172-1.8398-4.1172-4.1133v-35.84c0-2.2734 1.8438-4.1133 4.1172-4.1133h176.07c2.2734 0 4.1133 1.8398 4.1133 4.1133v35.84c0 2.2734-1.8398 4.1133-4.1133 4.1133zm-171.89-8.2305h167.84v-27.613l-167.91 0.003906z"/>
  <path d="m304.2 403.36h-98.395c-1.8789 0.003907-3.5195-1.2695-3.9844-3.0898l-23.625-91.867c-0.31641-1.2305-0.046874-2.5391 0.73438-3.5469 0.77734-1.0039 1.9805-1.5898 3.25-1.5898h145.65c1.2656 0.003907 2.4609 0.59375 3.2383 1.5977 0.77344 1.0039 1.043 2.3125 0.72656 3.5391l-23.605 91.867c-0.46875 1.8203-2.1094 3.0938-3.9883 3.0898zm-95.195-8.2305h91.996l21.504-83.641-135.02 0.003906z"/>
 </g>
</svg>
