<?xml version="1.0" encoding="UTF-8"?>
<svg width="512pt" height="512pt" version="1.1" viewBox="0 0 512 512" xmlns="http://www.w3.org/2000/svg">
 <g fill="#007335">
  <path d="m265.27 293.69h-0.38281c-2.2461-0.24219-3.8789-2.25-3.6562-4.5 3.418-35.805-6.0703-150.05-6.1641-151.2-0.1875-2.2695 1.5-4.2578 3.7695-4.4453 2.2656-0.18359 4.2539 1.5 4.4414 3.7695 0.38281 4.7188 9.6367 116.13 6.1445 152.67-0.21094 2.125-2.0117 3.7383-4.1523 3.7109z"/>
  <path d="m286.41 292.73c-0.64062-0.007813-1.2656-0.17188-1.8281-0.47266-2.0195-1.0156-2.8359-3.4648-1.8281-5.4883 0 0 6.125-13.75 4.5547-70.691-0.83984-30.172-8.2109-49.59-14.246-60.598-6.4922-11.832-12.801-16.66-12.945-16.715h-0.003907c-0.87891-0.64453-1.4688-1.6133-1.6328-2.6914-0.16797-1.0781 0.10156-2.1797 0.74609-3.0586 1.3438-1.832 3.918-2.2305 5.75-0.88672 1.1719 0.85938 28.836 21.707 30.539 83.711 1.6445 59.281-4.7344 73.324-5.4844 74.734-0.71875 1.3281-2.1094 2.1602-3.6211 2.1562z"/>
  <path d="m309.82 292.73c-1.3125 0.003906-2.543-0.61719-3.3203-1.6719-0.77344-1.0547-1.0039-2.418-0.61328-3.6641 0.23828-0.73047 22.621-74.184 3.9844-123.23-7.6445-20.113-30.41-27.43-43.887-27.43h0.003906c-2.2734 0-4.1133-1.8438-4.1133-4.1172 0-2.2695 1.8398-4.1133 4.1133-4.1133 15.707 0 42.406 8.7227 51.527 32.75 8.2656 21.797 10.129 50.086 5.4844 84.113h0.003906c-1.9961 15.051-5.125 29.93-9.3633 44.508-0.54297 1.6641-2.0742 2.8086-3.8203 2.8516z"/>
  <path d="m237.5 293.69c-1.9062-0.007812-3.5586-1.3125-4.0039-3.1641-5.3438-22.945-8.4062-46.359-9.1445-69.906-0.89453-42.258 8.4492-71.312 27.777-86.234 0.85938-0.70312 1.9648-1.0273 3.0664-0.89844 1.1055 0.125 2.1094 0.69141 2.7891 1.5703 0.67578 0.87891 0.97266 1.9961 0.81641 3.0938-0.15625 1.0977-0.75 2.0859-1.6445 2.7422-41.637 32.219-18.449 136.01-15.672 147.73 0.25391 1.0625 0.074219 2.1836-0.5 3.1094-0.57031 0.92969-1.4922 1.5938-2.5547 1.8477-0.30469 0.070313-0.61719 0.10547-0.92969 0.10938z"/>
  <path d="m210.07 293.69c-1.6836-0.011719-3.1914-1.0391-3.8203-2.5977-7.4609-18.668-21.832-86.219 0.60156-127.07 7.7656-14.875 21.602-25.648 37.926-29.531l-0.82422-3.9492c-0.41406-1.9375 0.61719-3.8945 2.4492-4.6445 0.96875-0.40234 9.6719-3.8945 15.965-2.9258 3.6172 0.44531 6.4141 3.3867 6.6758 7.0195 0.41797 4.3398-1.9727 8.4648-5.9453 10.258-3.9648 0.98438-8.0352 1.4883-12.121 1.5-0.23438 0.019531-0.46484 0.019531-0.69531 0-15.516 2.6172-28.91 12.34-36.207 26.277-21.23 38.637-6.2891 104.8-0.18359 120.06 0.51172 1.2695 0.35938 2.7109-0.40625 3.8438-0.76562 1.1328-2.0469 1.8086-3.4141 1.8086zm42.68-161.32 0.21875 1.0625v-0.003906c2.4297-0.0625 4.8477-0.35547 7.2227-0.875 0.33984-0.42578 0.55859-0.92969 0.64062-1.4648-2.75-0.050782-5.4844 0.38281-8.082 1.2812z"/>
  <path d="m264.19 132.5c-0.96094 0-1.8945-0.33594-2.6328-0.95312-1.7383-1.457-1.9766-4.0469-0.53125-5.7969l13.641-16.457c1.457-1.7461 4.0508-1.9844 5.7969-0.53125 1.75 1.457 1.9844 4.0508 0.53125 5.7969l-13.641 16.457c-0.78125 0.94141-1.9414 1.4844-3.1641 1.4844z"/>
  <path d="m262.58 130.18c-0.46484 0-0.92578-0.074219-1.3711-0.21875-2.1406-0.75781-3.2656-3.1016-2.5234-5.25l8.4492-24.137c0.32031-1.082 1.0664-1.9844 2.0703-2.4961 1.0039-0.51562 2.1758-0.59375 3.2383-0.21875s1.9297 1.168 2.3906 2.1953c0.46094 1.0273 0.48047 2.2031 0.054687 3.2461l-8.4297 24.102c-0.57422 1.6523-2.1289 2.7656-3.8789 2.7773z"/>
  <path d="m258.54 131.09h-0.40234c-2.25-0.23828-3.8828-2.25-3.6602-4.4961l3.1836-32.258c0.22656-2.2617 2.2461-3.9102 4.5078-3.6836 2.2617 0.22656 3.9102 2.2461 3.6836 4.5078l-3.1836 32.238h0.003906c-0.21875 2.1133-2.0078 3.7109-4.1328 3.6914z"/>
  <path d="m260.13 131.04c-1.5547-0.019531-2.9688-0.91016-3.6562-2.3047l-13.129-26.754v0.003907c-0.72266-1.9688 0.14453-4.1641 2.0195-5.1016s4.1523-0.31641 5.293 1.4453l13.129 26.754v-0.003906c0.99609 2.0195 0.17969 4.4648-1.8281 5.4844-0.56641 0.29297-1.1914 0.45703-1.8281 0.47656z"/>
  <path d="m250.2 132.5c-1.7148-0.003906-3.25-1.0664-3.8594-2.6719l-11.703-31.086c-0.38281-1.0234-0.34766-2.1562 0.10547-3.1523 0.44922-0.99609 1.2773-1.7734 2.3008-2.1602 2.1289-0.80078 4.5078 0.27344 5.3125 2.4062l11.684 31.086c0.38672 1.0195 0.34766 2.1484-0.10156 3.1406-0.44922 0.98828-1.2734 1.7617-2.293 2.1445-0.46094 0.18359-0.94922 0.28125-1.4453 0.29297z"/>
  <path d="m255.49 131.04c-0.93359-0.003906-1.8359-0.32812-2.5586-0.91406l-22.145-17.699c-1.0156-0.61328-1.7188-1.6367-1.9258-2.8047-0.20703-1.168 0.097656-2.3672 0.83984-3.293 0.74219-0.92578 1.8477-1.4844 3.0312-1.5352 1.1875-0.054687 2.3359 0.41016 3.1562 1.2695l22.145 17.699c1.3516 1.0938 1.8711 2.9258 1.293 4.5664-0.57812 1.6445-2.1289 2.7461-3.8711 2.7461z"/>
  <path d="m247.55 132.5c-0.78516-0.003906-1.5508-0.23438-2.2109-0.66016l-16.164-10.312c-1.9141-1.2266-2.4727-3.7734-1.2461-5.6875 1.2305-1.9141 3.7734-2.4688 5.6875-1.2422l16.145 10.312h0.003906c1.5469 0.98047 2.2578 2.8672 1.7461 4.625-0.51562 1.7578-2.1289 2.9688-3.9609 2.9648z"/>
  <path d="m302.26 151.77c-0.32812 0.003907-0.65234-0.039062-0.96875-0.125-1.0625-0.25781-1.9766-0.92578-2.543-1.8594s-0.73828-2.0547-0.47266-3.1172l2.8164-11.355c0.73828-1.9062 2.7656-2.9805 4.7578-2.5195 1.9922 0.46094 3.3477 2.3125 3.1758 4.3516l-2.8164 11.445c-0.42578 1.8438-2.0547 3.1562-3.9492 3.1797z"/>
  <path d="m303.27 152.76c-1.7617 0.039063-3.3477-1.0508-3.9492-2.7031-0.60547-1.6523-0.089843-3.5039 1.2773-4.6094l10.312-8.7773c1.75-1.5 4.3828-1.3008 5.8789 0.44922 1.5 1.7461 1.3008 4.3789-0.44531 5.8789l-10.406 8.7734c-0.74609 0.63281-1.6914 0.98438-2.668 0.98828z"/>
  <path d="m319.56 151.77h-15.18c-2.2695 0-4.1133-1.8398-4.1133-4.1133 0-2.2695 1.8438-4.1133 4.1133-4.1133h15.18c2.2695 0 4.1133 1.8438 4.1133 4.1133 0 2.2734-1.8438 4.1133-4.1133 4.1133z"/>
  <path d="m331.27 184.78h-14.062c-1.6406 0-3.125-0.97656-3.7773-2.4805-0.64844-1.5039-0.34375-3.2539 0.77734-4.4492l8.7773-9.3242v-0.003907c1.5625-1.6094 4.1328-1.6719 5.7695-0.13281 1.6367 1.5352 1.7383 4.1055 0.22656 5.7656l-2.2656 2.3945h4.5547c2.2695 0 4.1133 1.8438 4.1133 4.1172 0 2.2695-1.8438 4.1133-4.1133 4.1133z"/>
  <path d="m328.61 195.24c-1.0234-0.003906-2.0078-0.39062-2.7617-1.082l-11.336-10.457c-0.94531-0.6875-1.5547-1.7422-1.6758-2.9023s0.25781-2.3203 1.043-3.1836c0.78125-0.86719 1.8945-1.3594 3.0625-1.3555 1.1641 0 2.2773 0.5 3.0547 1.3711l11.41 10.461v-0.003906c1.2539 1.1484 1.6719 2.9453 1.0586 4.5273-0.61719 1.582-2.1406 2.625-3.8398 2.625z"/>
  <path d="m317.59 218.64c-1.6289 0.003906-3.1016-0.95703-3.7617-2.4414-0.66406-1.4883-0.38281-3.2266 0.70703-4.4336l10.059-11.152c0.70312-0.89844 1.7461-1.4648 2.8789-1.5664 1.1367-0.097656 2.2617 0.27734 3.1133 1.0391 0.84766 0.76172 1.3398 1.8398 1.3633 2.9805 0.019532 1.1406-0.42969 2.2383-1.25 3.0312l-3.3828 3.6562 5.4844-0.3125 0.003906 0.003906c2.2695-0.12109 4.2109 1.6211 4.332 3.8945 0.12109 2.2734-1.6211 4.2109-3.8945 4.332l-15.488 0.82422z"/>
  <path d="m328.63 230.62c-1.2109-0.003906-2.3594-0.53906-3.1445-1.4648l-10.168-12.031h0.003906c-0.72656-0.83203-1.0898-1.918-1.0039-3.0195 0.082032-1.1016 0.60547-2.1211 1.4492-2.832 0.84375-0.71484 1.9375-1.0547 3.0352-0.95313 1.1016 0.10547 2.1133 0.64453 2.8086 1.5l10.148 12.016c1.0234 1.2227 1.25 2.9297 0.58203 4.3828-0.66797 1.4492-2.1133 2.3828-3.7109 2.4023z"/>
  <path d="m322.91 268.8c-1.4336-0.003906-2.7656-0.75-3.5078-1.9766l-8.6875-14.191v0.003907c-0.60547-1.0039-0.75-2.2188-0.40234-3.3398 0.35156-1.1172 1.1602-2.0312 2.2305-2.5117l11.758-5.5938v-0.003906c0.99219-0.52734 2.1562-0.625 3.2227-0.27344 1.0664 0.35156 1.9453 1.125 2.4258 2.1406 0.48438 1.0156 0.52734 2.1836 0.12891 3.2305-0.39844 1.0508-1.2109 1.8906-2.2461 2.3281l-7.625 3.6562 6.3086 10.277h-0.003907c1.1875 1.9414 0.58203 4.4727-1.3516 5.668-0.67969 0.40234-1.4609 0.60156-2.25 0.58594z"/>
  <path d="m327.09 259.86c-0.58984 0.003906-1.1797-0.12109-1.7188-0.36719l-12.234-5.4844h0.003906c-1.0547-0.41016-1.8945-1.2383-2.3203-2.2852s-0.40234-2.2227 0.066406-3.2539c0.46875-1.0273 1.3398-1.8203 2.4102-2.1875 1.0664-0.36719 2.2422-0.27734 3.2422 0.24609l12.25 5.4844 0.003906 0.003906c1.7422 0.80859 2.6914 2.7188 2.2852 4.6016-0.41016 1.8789-2.0625 3.2266-3.9883 3.2422z"/>
  <path d="m221 156c-1.875 0.007812-3.5156-1.2578-3.9844-3.0742l-4.6094-17.828c-0.33594-1.0742-0.21875-2.2422 0.32812-3.2266 0.54688-0.98438 1.4727-1.7031 2.5625-1.9883 1.0898-0.28125 2.25-0.10547 3.207 0.48828 0.95703 0.59766 1.6289 1.5586 1.8555 2.6602l4.5547 17.828c0.55469 2.2031-0.76562 4.4375-2.9609 5.0117-0.3125 0.082031-0.63281 0.125-0.95312 0.12891z"/>
  <path d="m201.02 158.55c-2.1992 0.007812-4.0156-1.7148-4.125-3.9141-0.10938-2.1953 1.5312-4.0898 3.7227-4.2969l6.3086-0.64062-7.8828-4.2969c-2.0195-1.0938-2.7695-3.6211-1.6719-5.6406 1.0938-2.0195 3.6211-2.7695 5.6406-1.6719l19.527 10.695h0.003906c1.5781 0.87109 2.4062 2.6641 2.0469 4.4297-0.36328 1.7656-1.8281 3.0898-3.6211 3.2695l-19.527 1.9375z"/>
  <path d="m198.93 202.55c-0.42188 0-0.83984-0.0625-1.2422-0.18359l-14.832-4.7188c-2.1641-0.68359-3.3633-2.9961-2.6758-5.1641 0.68359-2.168 3-3.3672 5.1641-2.6797l3.2734 1.043-4.0234-5.7227c-1.3086-1.8594-0.85938-4.4258 0.99609-5.7344 1.8594-1.3047 4.4258-0.85938 5.7344 0.99609l10.973 15.688-0.003906 0.003906c0.89453 1.2539 1.0117 2.9023 0.30078 4.2656-0.71094 1.3672-2.125 2.2188-3.6641 2.207z"/>
  <path d="m178.93 205.99c-2.1094-0.027343-3.8594-1.6523-4.043-3.7539-0.18359-2.1055 1.2539-4.0078 3.3281-4.4023l19.418-3.4375h0.003906c1.0781-0.19922 2.1914 0.039063 3.0898 0.66406 0.90234 0.62109 1.5195 1.582 1.7109 2.6602s-0.054688 2.1914-0.68359 3.0859c-0.63281 0.89844-1.5938 1.5078-2.6719 1.6914l-19.438 3.4375c-0.23828 0.035156-0.47656 0.054687-0.71484 0.054687z"/>
  <path d="m197.87 235.36c-1.1992 0-2.3398-0.51953-3.1289-1.4258l-8.5586-9.9297c-0.77344-0.81641-1.1836-1.9141-1.1289-3.0352 0.054687-1.125 0.56641-2.1797 1.418-2.9141 0.85156-0.73438 1.9688-1.0898 3.0898-0.98438 1.1172 0.10938 2.1445 0.67188 2.8398 1.5586l8.5742 9.9297c1.4805 1.7227 1.2812 4.3164-0.4375 5.7969-0.73828 0.64844-1.6875 1.0078-2.668 1.0039z"/>
  <path d="m188.67 245.48c-1.6992 0.011719-3.2305-1.0312-3.8516-2.6133-0.62109-1.5859-0.19922-3.3867 1.0547-4.5352l0.89453-0.82422-2.9453 0.12891h0.003906c-2.2734 0.097656-4.1953-1.668-4.2891-3.9414-0.097656-2.2695 1.668-4.1914 3.9414-4.2852l14.207-0.62109v-0.003907c1.7227-0.058593 3.2969 0.95703 3.957 2.5508 0.66016 1.5898 0.26172 3.4258-0.99609 4.6016l-9.1445 8.4492 0.003906-0.003906c-0.76953 0.71875-1.7852 1.1133-2.8359 1.0977z"/>
  <path d="m203.67 273.34c-0.26953 0.027343-0.53906 0.027343-0.80469 0l-12.801-2.5039v-0.003906c-1.1211-0.15234-2.1289-0.76172-2.7852-1.6836-0.65625-0.91797-0.90625-2.0664-0.69141-3.1797 0.21484-1.1094 0.87891-2.0781 1.8359-2.6875 0.95312-0.60547 2.1172-0.78906 3.2109-0.51172l12.801 2.5039c2.0859 0.39844 3.5234 2.3164 3.3242 4.4297-0.19922 2.1094-1.9688 3.7266-4.0898 3.7266z"/>
  <path d="m193.52 280.12c-1.9336 0.027343-3.625-1.293-4.0625-3.1758-0.44141-1.8828 0.48828-3.8164 2.2305-4.6484l10.129-4.8086h0.003906c2.0547-0.97656 4.5117-0.097656 5.4844 1.957 0.97656 2.0547 0.097656 4.5078-1.957 5.4844l-10.055 4.8438c-0.55859 0.24609-1.1641 0.36719-1.7734 0.34766z"/>
  <path d="m199.99 285.66c-1.4531 0-2.8008-0.75781-3.5469-2-0.75-1.2461-0.79297-2.7891-0.11328-4.0703l4.625-8.5742 0.003907-0.003906c1.0742-2.0195 3.582-2.7852 5.6055-1.707 2.0195 1.0742 2.7852 3.582 1.707 5.6016l-4.6602 8.5234c-0.69531 1.3633-2.0938 2.2227-3.6211 2.2305z"/>
  <path d="m229.87 194.71c-0.53125 0-1.0586-0.10156-1.5547-0.29297l-11.445-4.7188h-0.003906c-2.0977-0.86719-3.0977-3.2734-2.2305-5.375 0.87109-2.1016 3.2773-3.1016 5.3789-2.2305l1.2969 0.54688-2.3789-4.8086c-0.72266-1.9648 0.14844-4.1602 2.0234-5.0977s4.1523-0.31641 5.293 1.4414l7.3125 14.629c0.63281 1.2695 0.5625 2.7773-0.17969 3.9844-0.74609 1.207-2.0586 1.9492-3.4766 1.957z"/>
  <path d="m218.44 204.27c-1.7539 0.019531-3.3242-1.0703-3.918-2.7188-0.59375-1.6484-0.078126-3.4922 1.2852-4.5938l11.43-9.5469c1.7422-1.4609 4.3359-1.2305 5.793 0.51172 1.4609 1.7422 1.2305 4.3359-0.51172 5.7969l-11.445 9.5625c-0.73438 0.62891-1.668 0.98047-2.6328 0.98828z"/>
  <path d="m228.43 228.66c-1.2578 0-2.4492-0.57422-3.2383-1.5547l-8.9219-11.34c-1.4141-1.7812-1.1172-4.3711 0.66797-5.7852 1.7812-1.4141 4.3711-1.1172 5.7852 0.66797l8.9219 11.281h0.003906c0.98047 1.2344 1.168 2.9258 0.48438 4.3477-0.6875 1.4219-2.125 2.3242-3.7031 2.3281z"/>
  <path d="m227.42 228.66h-11.484 0.003906c-2.2734 0-4.1172-1.8438-4.1172-4.1172 0-2.2695 1.8438-4.1133 4.1172-4.1133h11.484-0.003906c2.2734 0 4.1172 1.8438 4.1172 4.1133 0 2.2734-1.8438 4.1172-4.1172 4.1172z"/>
  <path d="m221.79 239.95c-1.5312 0-2.9336-0.84766-3.6445-2.2031-0.71094-1.3555-0.60938-2.9922 0.26172-4.25l6.6367-9.5625v-0.003907c1.3086-1.8203 3.8359-2.2578 5.6797-0.98047 1.8477 1.2773 2.3281 3.7969 1.0859 5.6641l-6.6367 9.5625c-0.76953 1.1133-2.0352 1.7773-3.3828 1.7734z"/>
  <path d="m223.96 268.8c-1.8906 0.007813-3.543-1.2695-4.0078-3.0977-0.46875-1.8281 0.37109-3.7422 2.0312-4.6367l2.9609-1.6094-3.6914-3.457c-0.94531-0.6875-1.5547-1.7422-1.6719-2.9023-0.12109-1.1602 0.25391-2.3164 1.0391-3.1836 0.78125-0.86719 1.8945-1.3594 3.0625-1.3555s2.2773 0.5 3.0547 1.3711l8.0273 7.3125c0.98438 0.89844 1.4766 2.2148 1.3164 3.5352-0.16016 1.3242-0.94922 2.4844-2.1211 3.1211l-8.0273 4.3711c-0.60156 0.34375-1.2812 0.52734-1.9727 0.53125z"/>
  <path d="m227.97 280.48c-1.2891-0.007813-2.5-0.61719-3.2734-1.6484-0.77344-1.0273-1.0234-2.3594-0.67578-3.5977l4.0039-14.008c0.79297-1.9531 2.9297-2.9883 4.9531-2.4062 2.0195 0.58203 3.2773 2.6016 2.9102 4.6719l-4.0234 14.008c-0.5 1.7422-2.082 2.9531-3.8945 2.9805z"/>
  <path d="m239.54 160.71c-0.51953-0.007813-1.0352-0.10938-1.5195-0.29297l-8.1523-3.1641c-1.0156-0.40625-1.8242-1.1953-2.2578-2.1992-0.42969-1.0039-0.44531-2.1367-0.039062-3.1484 0.84375-2.1133 3.2383-3.1406 5.3477-2.2969l1.4609 0.58594h0.003907c0.03125-2.1289 1.6875-3.8828 3.8086-4.0391 2.125-0.15625 4.0195 1.332 4.3633 3.4336l0.98828 6.4375c0.15625 1.168-0.19141 2.3438-0.95312 3.2383-0.76562 0.89062-1.875 1.418-3.0508 1.4453z"/>
  <path d="m224.16 168.06c-1.9297-0.011719-3.5938-1.3711-3.9922-3.2617-0.40234-1.8906 0.56641-3.8047 2.3281-4.6016l14.922-6.582c1.0039-0.50391 2.1758-0.57422 3.2344-0.19141 1.0586 0.37891 1.9141 1.1758 2.3711 2.207 0.45312 1.0273 0.46875 2.1992 0.039062 3.2383-0.42969 1.0391-1.2695 1.8555-2.3164 2.2617l-14.922 6.582c-0.52344 0.23047-1.0898 0.34766-1.6641 0.34766z"/>
  <path d="m277.83 151.15c-1.6719 0-3.1758-1.0117-3.8086-2.5625-0.62891-1.5508-0.25781-3.3281 0.9375-4.4961l6.2188-6.0703c0.77344-0.80469 1.8359-1.2578 2.9531-1.2656 1.1133-0.003906 2.1836 0.44531 2.9609 1.2422 0.77734 0.80078 1.1992 1.8789 1.168 2.9922-0.035157 1.1172-0.51562 2.168-1.3398 2.9219l-6.2188 6.0312c-0.76172 0.76562-1.793 1.1992-2.8711 1.207z"/>
  <path d="m276.64 151.77c-1.2578 0.003907-2.4492-0.57422-3.2305-1.5625-0.77734-0.98438-1.0664-2.2773-0.77344-3.5l1.8281-7.8438c0.53516-2.2227 2.7695-3.5898 4.9922-3.0547 2.2227 0.53516 3.5898 2.7695 3.0547 4.9922l-0.60156 2.5234 5.4844-0.23828c2.2695-0.097657 4.1914 1.668 4.2852 3.9414 0.097656 2.2695-1.668 4.1914-3.9414 4.2852l-10.973 0.47656z"/>
  <path d="m290.39 178.96c-1.3906-0.023438-2.6758-0.75-3.4141-1.9336-0.73828-1.1797-0.83203-2.6523-0.24219-3.918l6.6016-14.191v0.003906c0.95703-2.0625 3.4062-2.9531 5.4688-1.9922 2.0586 0.95703 2.9492 3.4062 1.9922 5.4648l-2.5781 5.4844 8.0078-2.6523v0.003907c2.0977-0.55078 4.2617 0.62109 4.9492 2.6797 0.68359 2.0547-0.34375 4.293-2.3516 5.1094l-17.062 5.6875c-0.4375 0.16406-0.90234 0.25-1.3711 0.25391z"/>
  <path d="m301.39 184.78c-0.64062-0.011719-1.2656-0.17578-1.832-0.47656l-10.973-5.8164 0.003907 0.003906c-2.0195-1.0664-2.793-3.5664-1.7305-5.5859 1.0664-2.0234 3.5664-2.7969 5.5898-1.7305l10.973 5.8164h-0.003907c1.6875 0.87109 2.5547 2.7852 2.0977 4.625-0.45703 1.8398-2.1211 3.1289-4.0156 3.1094z"/>
  <path d="m303.89 216.12h-10.809c-1.75 0.011718-3.3125-1.0898-3.8906-2.7422s-0.042968-3.4883 1.332-4.5703l10.809-8.6484c1.7852-1.418 4.3867-1.1211 5.8047 0.66797 1.418 1.7852 1.1211 4.3867-0.66797 5.8047l-1.7383 1.3906c2.0547 0.4375 3.4453 2.3555 3.2305 4.4453-0.21484 2.0898-1.9688 3.6797-4.0703 3.6914z"/>
  <path d="m300.34 223.43c-1.0977 0-2.1484-0.43359-2.9258-1.207l-7.3164-7.3164c-0.76562-0.77344-1.1953-1.8242-1.1914-2.9141 0.003906-1.0938 0.44531-2.1406 1.2188-2.9062 1.6172-1.6016 4.2266-1.5898 5.8242 0.027344l7.3125 7.3125h0.003906c1.1641 1.1797 1.5039 2.9453 0.86719 4.4766-0.64062 1.5273-2.1367 2.5273-3.793 2.5273z"/>
  <path d="m301.18 249h-13.953c-1.6953 0-3.2188-1.0391-3.8359-2.625-0.61328-1.582-0.19531-3.3789 1.0586-4.5234l11.266-10.312h-0.003906c1.7031-1.2383 4.0625-0.99219 5.4727 0.56641 1.4102 1.5625 1.418 3.9336 0.015625 5.5039l-3.457 3.1641h3.3633c2.2734 0 4.1172 1.8398 4.1172 4.1133 0 2.2734-1.8438 4.1133-4.1172 4.1133z"/>
  <path d="m295.54 258.89c-1.2148 0.003906-2.3672-0.53125-3.1484-1.4648l-8.3008-9.8906c-1.4648-1.7422-1.2383-4.3438 0.50391-5.8086 1.7422-1.4648 4.3398-1.2383 5.8047 0.50391l8.3008 9.8906v0.003906c0.70313 0.83594 1.043 1.9141 0.94531 3.0039-0.09375 1.0859-0.61719 2.0898-1.457 2.793-0.73828 0.62891-1.6797 0.97266-2.6484 0.96875z"/>
  <path d="m285.26 283.61c-1.7461 0.003907-3.3047-1.0938-3.8867-2.7383-0.58594-1.6445-0.066406-3.4805 1.2891-4.5781l8.9414-7.3125c1.6367-1.332 4.0117-1.2148 5.5039 0.27344 1.4922 1.4883 1.6211 3.8633 0.29297 5.5039 1.6367 0.82031 2.5352 2.6289 2.1992 4.4297-0.33594 1.8008-1.8203 3.1641-3.6445 3.3398l-10.277 1.0234z"/>
  <path d="m294.2 289.66c-0.71094 0-1.4102-0.17969-2.0312-0.53125l-8.9219-5.1211v0.003906c-0.98438-0.52344-1.7148-1.4258-2.0234-2.4961-0.30859-1.0703-0.17188-2.2227 0.38281-3.1875 0.55859-0.96875 1.4805-1.668 2.5625-1.9414s2.2266-0.09375 3.1719 0.49219l8.9219 5.1016h0.003906c1.6172 0.92969 2.4062 2.832 1.9219 4.6328-0.48828 1.8047-2.1211 3.0547-3.9883 3.0469z"/>
  <path d="m344.05 329.53h-176.09c-2.2422 0-4.0742-1.7969-4.1133-4.043v-35.84c0-2.2695 1.8438-4.1133 4.1133-4.1133h176.09c2.2695 0 4.1133 1.8438 4.1133 4.1133v35.84c-0.039062 2.2461-1.8711 4.043-4.1133 4.043zm-171.98-8.2305h167.86v-27.613l-167.86 0.003906z"/>
  <path d="m305.19 421.39h-98.375c-1.8789 0-3.5195-1.2695-3.9883-3.0898l-23.625-91.867c-0.31641-1.2344-0.042969-2.543 0.73438-3.5469 0.78125-1.0039 1.9805-1.5938 3.2539-1.5938h145.63-0.003906c1.2734 0 2.4727 0.58984 3.2539 1.5938 0.77734 1.0039 1.0508 2.3125 0.73438 3.5469l-23.625 91.867c-0.46875 1.8203-2.1094 3.0898-3.9883 3.0898zm-95.195-8.1367h92.016l21.504-83.641h-135.02z"/>
 </g>
</svg>
