<?xml version="1.0" encoding="UTF-8"?>
<svg width="512pt" height="512pt" version="1.1" viewBox="0 0 512 512" xmlns="http://www.w3.org/2000/svg">
 <g fill="#007335">
  <path d="m238.34 240.77c-1.207-0.003906-2.3555-0.53125-3.1445-1.4453-2.6836-3.082-5.1289-6.3672-7.3164-9.8203-7.3125-12.18 3.7656-36.113 17.207-44.473 9.0508-5.6133 21.504-30.117 25.602-39.078v0.003906c0.89453-1.9766 3.1719-2.918 5.2031-2.1484 2.0312 0.76562 3.1133 2.9805 2.4766 5.0547-0.29297 0.93359-6.8945 23.426 10.695 41.379 17.207 17.574 6.0898 39.312 0.51172 47.836h0.003907c-1.2422 1.9062-3.793 2.4414-5.6992 1.1992-1.9023-1.2422-2.4375-3.793-1.1953-5.6953 5.4844-8.5195 13.055-24.742 0.49219-37.578-7.7578-7.8047-12.699-17.969-14.043-28.891-5.4844 9.7656-12.801 20.68-19.656 24.922-10.586 6.5664-19 25.801-14.52 33.172 1.9336 3.0938 4.1055 6.0352 6.4922 8.7969 1.0469 1.2188 1.2852 2.9375 0.60547 4.3945-0.67578 1.457-2.1445 2.3867-3.75 2.3711z"/>
  <path d="m304.93 240.18c-1.8711-0.003906-3.5-1.2656-3.9727-3.0742-0.47266-1.8086 0.33203-3.707 1.9609-4.625 9.4922-5.3203 19.402-20.113 22.566-33.5 1.4609-6.1797 1.2617-11.281-0.58594-13.969-3.6562-5.4844-9.3438-13.77-13.66-20.113-2.4883 11.684-8.7422 29.055-24.266 32.219-2.2266 0.45312-4.4023-0.98438-4.8555-3.2109-0.45312-2.2266 0.98047-4.3984 3.2109-4.8555 6.9297-1.4062 12.27-7.6055 15.855-18.434l-0.003906 0.003906c1.793-5.5195 2.9336-11.227 3.4023-17.008 0.09375-1.7617 1.3047-3.2695 3.0078-3.7422s3.5156 0.19531 4.5078 1.6602l19.621 28.816c3.1992 4.7344 3.8203 11.832 1.8281 20.5-3.2188 13.676-13.367 31.398-26.551 38.766-0.625 0.375-1.3398 0.57031-2.0664 0.56641z"/>
  <path d="m318.34 240.18c-1.7812-0.003906-3.3594-1.1523-3.9102-2.8477-0.54688-1.6914 0.054688-3.5469 1.4961-4.5938 0.16406-0.12891 17.684-12.965 25.07-26.168 6.8945-12.344 0-27.43-3.0703-30.574-0.75391-0.77734-1.3711-1.6719-1.832-2.6523-1.6641 4.5547-3.5469 8.4297-5.4844 10.129v0.003907c-0.77734 0.89062-1.9023 1.4023-3.0859 1.4102-1.1797 0.003906-2.3086-0.5-3.0938-1.3867-0.78516-0.88672-1.1523-2.0664-1.0039-3.2383 0.14844-1.1758 0.79297-2.2305 1.7695-2.8945 2.1758-2.0469 6.2539-15.488 8.7031-26.754l0.003907 0.003906c0.59375-1.9375 2.5078-3.1484 4.5156-2.8633 2.0039 0.28906 3.5 1.9883 3.5273 4.0117-0.58594 8.1367 0.23828 16.949 1.7188 18.504 4.9375 4.9375 13.496 24.191 4.4453 40.395-8.2852 14.812-26.641 28.25-27.43 28.816v0.003906c-0.69141 0.46484-1.5078 0.70703-2.3398 0.69531z"/>
  <path d="m194.34 201h-0.38281c-2.2422-0.23828-3.8711-2.2383-3.6562-4.4805 1.8281-18.816 30.48-46.867 31.688-48.055 1.457-1.418 3.7266-1.5586 5.3477-0.33594 1.6211 1.2266 2.1094 3.4492 1.1445 5.2383 0 0.14453-8.5195 16.238-3.2188 27.098 2.4883 5.1211 7.918 8.4297 16.129 9.8906v0.003907c1.0977 0.16016 2.0859 0.75781 2.7383 1.6602 0.64844 0.90234 0.91016 2.0273 0.71484 3.1211-0.19141 1.0977-0.82031 2.0664-1.7383 2.6914-0.92188 0.625-2.0547 0.85156-3.1406 0.625-10.973-1.9375-18.414-6.7852-22.109-14.41v0.003906c-2.3125-5.1562-3.1016-10.867-2.2656-16.457-7.9922 9.5625-16.312 21.469-17.098 29.734v-0.003907c-0.22656 2.1133-2.0273 3.707-4.1523 3.6758z"/>
  <path d="m180.26 239.84c-0.875-0.007813-1.7266-0.28906-2.4336-0.80469-11.098-8.2109-13.293-18.781-14.758-25.781v-0.003906c-0.26562-1.5117-0.64453-3.0039-1.1328-4.4609-4.4805-10.844-1.2969-15.891 4.0977-22.363 2.6875-3.2383 5.2852-16.457 6.2734-24.668h-0.003906c0.24219-1.9727 1.8594-3.4922 3.8438-3.6094 1.9844-0.11719 3.7695 1.2031 4.2383 3.1367 1.8281 7.3125 6.125 18.781 10.223 21.23 6.6562 3.9688 8.6484 16.457 10.387 31.086 0.38281 3.1445 0.73047 6.125 1.0625 7.3125 1.5898 4.8281 4.9102 8.9023 9.3242 11.43 0.99219 0.55469 1.7109 1.4961 1.9844 2.5977 0.27344 1.1055 0.078124 2.2734-0.53906 3.2266-0.61719 0.95313-1.6016 1.6094-2.7227 1.8125-1.1172 0.20313-2.2695-0.066406-3.1836-0.74609-6.7305-4.3516-10.973-9.7812-12.801-16.129v0.003907c-0.60156-2.8125-1.0352-5.6602-1.2969-8.5234-0.80469-6.8008-2.707-22.711-6.4375-24.941s-6.4727-6.5273-8.6875-11.152c-1.2969 5.3047-3.0547 10.531-5.3398 13.277-4.168 5.0117-5.7422 6.875-2.8164 13.953l0.003906-0.003906c0.70703 1.9219 1.2383 3.9062 1.5898 5.9258 1.2617 6.125 3.0156 14.52 11.574 20.848v-0.003906c1.8242 1.3438 2.2148 3.9141 0.87891 5.7422-0.79688 1.0273-2.0273 1.625-3.3281 1.6094z"/>
  <path d="m344.05 276.61h-176.09c-1.0977 0-2.1484-0.44141-2.9219-1.2188-0.77344-0.78125-1.1992-1.8359-1.1914-2.9336v-35.84c0-2.2734 1.8438-4.1133 4.1133-4.1133h176.09c2.2695 0 4.1133 1.8398 4.1133 4.1133v35.84c0.007813 1.0977-0.41797 2.1523-1.1914 2.9336-0.77344 0.77734-1.8242 1.2188-2.9219 1.2188zm-171.98-8.2305h167.86v-27.613l-167.86 0.003906z"/>
  <path d="m305.19 368.48h-98.375c-1.8828 0.007813-3.5273-1.2695-3.9883-3.0898l-23.625-91.867c-0.31641-1.2344-0.042969-2.543 0.73438-3.5469 0.78125-1.0039 1.9805-1.5938 3.2539-1.5938h145.63-0.003906c1.2734 0 2.4727 0.58984 3.2539 1.5938 0.77734 1.0039 1.0508 2.3125 0.73438 3.5469l-23.625 91.867c-0.46094 1.8203-2.1055 3.0977-3.9883 3.0898zm-95.195-8.2461h92.016l21.504-83.641h-135.02z"/>
 </g>
</svg>
