<?xml version="1.0" encoding="UTF-8"?>
<svg width="512pt" height="512pt" version="1.1" viewBox="0 0 512 512" xmlns="http://www.w3.org/2000/svg">
 <g fill="#007335">
  <path d="m250.41 235.54c-1.2227 0.003907-2.3828-0.53906-3.1641-1.4805-13.969-16.805-19.785-33.406-17.316-49.371 3.5469-22.91 23.023-35.621 23.77-36.152 1.2695-0.80859 2.875-0.86328 4.1953-0.13672 1.3164 0.72266 2.1328 2.1055 2.1328 3.6094v73.801c0 2.2734-1.8438 4.1172-4.1133 4.1172-0.69922-0.011719-1.3789-0.1875-1.9961-0.51172 0.70313 1.2812 0.67188 2.8398-0.082031 4.0938-0.75 1.25-2.1133 2.0117-3.5742 1.9922zm1.4805-74.754c-5.2305 5.1016-12.086 13.75-13.844 25.289-1.9766 12.801 2.7227 26.605 13.969 40.812l0.003906 0.003906c-0.082031-0.34375-0.125-0.69141-0.12891-1.043z"/>
  <path d="m244.73 229.96c-0.85938-0.003907-1.6992-0.27734-2.3945-0.78516-4.7891-3.4375-11.539-6.9102-13.969-6.5273-0.30469 0.035156-0.61328 0.035156-0.91406 0-18.285-1.3906-30.137-6.8008-35.219-16.129-5.832-10.695-0.32812-22.234 0.51172-23.77v-0.003906c3.0898-6.5156 8.6016-11.566 15.359-14.078 8.668-3.0547 18.781-1.4805 30.078 4.6797h0.003906c1.9062 1.1289 2.5781 3.5625 1.5195 5.5117-1.0586 1.9453-3.4688 2.7031-5.4531 1.7109-9.1445-4.9727-16.949-6.3633-23.312-4.168-4.6836 1.7617-8.5117 5.25-10.699 9.7461-0.054688 0.12109-0.11328 0.23437-0.18359 0.34766 0 0-4.6094 8.8867-0.56641 16.219 3.6562 6.5469 13.348 10.605 28.195 11.793 7.0234-0.58594 17.406 6.582 19.457 8.0625v0.003907c1.457 1.043 2.0742 2.9062 1.5234 4.6133-0.55469 1.7031-2.1445 2.8555-3.9375 2.8477z"/>
  <path d="m190.28 247c-9.9648 0-16.273-1.9766-19.254-6.0508v-0.003906c-1.5195-1.9492-2.0625-4.4883-1.4805-6.8906 1.4102-5.1445 5.2812-9.2539 10.328-10.973-2.707-3.7773-4.4062-8.1836-4.9375-12.801-0.007812-0.15234-0.007812-0.30469 0-0.45703-0.46094-5.0391 1.3438-10.023 4.9219-13.605 5.4844-5.2305 13.402-4.6797 14.281-4.6094v0.003907c2.2656 0.19922 3.9414 2.2031 3.7383 4.4688-0.20312 2.2695-2.2031 3.9414-4.4727 3.7422-2.8516-0.20703-5.6797 0.65234-7.9336 2.4102-1.7422 1.9297-2.582 4.5117-2.3047 7.0977 0.80469 5.3398 2.6875 8.9961 5.7617 11.211 6.2891 4.5352 17.391 2.5039 25.492 1.0234 2.707-0.49219 5.2461-0.94922 7.4258-1.1523 13.039-1.207 29.75 7.0586 30.465 7.3125h-0.007812c1.9609 0.94922 2.8438 3.2656 2.0078 5.2773-0.83594 2.0117-3.0938 3.0273-5.1523 2.3125-4.1055-1.4023-8.6172-0.96094-12.379 1.207-3.8203 2.1914-7.8828 3.9336-12.105 5.1914-11.141 3.3398-22.691 5.1133-34.32 5.2656zm-12.801-11.062c0.16406 0.54688 2.7227 2.8359 12.801 2.8359v-0.003906c10.848-0.16016 21.625-1.8203 32.02-4.9375 3.5781-1.0742 7.0234-2.5469 10.273-4.3867-3.2773-0.81641-6.6641-1.125-10.035-0.91406-1.8281 0.16406-4.207 0.60156-6.7109 1.0625-8.1562 1.4805-18.891 3.4375-27.539-0.10938v-0.003906c-0.49609 0.25781-1.0352 0.41406-1.5938 0.45703-8.0273 0.64062-9.1445 5.8516-9.1445 5.9062h0.003907v0.039063z"/>
  <path d="m261.59 235.54c-1.4609 0.015626-2.8203-0.74219-3.5742-1.9961-0.75-1.2539-0.78125-2.8125-0.082031-4.0938-0.61328 0.32812-1.2969 0.50391-1.9922 0.51172-2.2734 0-4.1133-1.8438-4.1133-4.1133v-73.801c-0.003906-1.5039 0.81641-2.8906 2.1328-3.6133s2.9258-0.67188 4.1914 0.13672c0.83984 0.53125 20.316 13.238 23.77 36.152 2.4688 15.926-3.3477 32.531-17.316 49.371h0.003906c-0.75391 0.89062-1.8516 1.4141-3.0195 1.4453zm-1.4805-74.789v65.098c-0.003906 0.35156-0.046875 0.69922-0.12891 1.043 11.266-14.246 15.965-27.996 13.953-40.906-1.7812-9.6758-6.625-18.523-13.824-25.234z"/>
  <path d="m267.27 229.96c-1.793 0.007812-3.3828-1.1445-3.9375-2.8477-0.55078-1.7031 0.066406-3.5703 1.5234-4.6133 2.0469-1.4805 12.434-8.6484 19.457-8.0625 14.883-1.1875 24.648-5.2852 28.234-11.832 3.9688-7.3125-0.56641-16.09-0.60156-16.184h-0.003906c-0.074219-0.12109-0.13281-0.25-0.18359-0.38281-2.207-4.4766-6.0312-7.9453-10.699-9.7109-6.3633-2.2109-14.191-0.80469-23.312 4.168v0.003906c-0.96094 0.56641-2.1133 0.71875-3.1875 0.42188-1.0781-0.29688-1.9844-1.0195-2.5195-2s-0.64453-2.1328-0.3125-3.1992c0.33594-1.0664 1.0898-1.9492 2.0859-2.4453 11.301-6.1641 21.414-7.7344 30.078-4.6797l0.003906-0.003906c6.7578 2.5117 12.27 7.5664 15.359 14.082 0.83984 1.6289 6.3438 13.164 0.51172 23.77-5.082 9.3242-16.934 14.738-35.219 16.129-0.30078 0.035156-0.60938 0.035156-0.91406 0-2.3945-0.38281-9.2891 3.1641-13.969 6.5273-0.6875 0.53516-1.5273 0.83594-2.3945 0.85938z"/>
  <path d="m321.72 247c-11.629-0.15625-23.18-1.9258-34.32-5.2656-4.2227-1.2578-8.2852-3-12.105-5.1953-3.7656-2.1562-8.2734-2.5938-12.383-1.207-2.0547 0.71484-4.3164-0.29688-5.1484-2.3086-0.83594-2.0156 0.042969-4.3281 2.0039-5.2773 0.71484-0.34766 17.406-8.5938 30.465-7.3125 2.1758 0.19922 4.7188 0.66016 7.4258 1.1523 8.1016 1.4805 19.199 3.4922 25.492-1.0234 3.0703-2.2109 4.957-5.8711 5.7617-11.211l-0.003906-0.003907c0.28125-2.5977-0.56641-5.1953-2.3242-7.1289-2.8906-2.707-7.8438-2.3789-7.8984-2.3945-2.2305 0.14844-4.1719-1.5078-4.375-3.7305-0.20312-2.2266 1.4062-4.207 3.625-4.4648 0.87891 0 8.7422-0.62109 14.281 4.6094 3.5781 3.5781 5.3789 8.5625 4.918 13.605 0.011719 0.15234 0.011719 0.30469 0 0.45703-0.52734 4.6172-2.2266 9.0234-4.9375 12.801 5.0508 1.7188 8.9219 5.8281 10.332 10.969 0.58203 2.4062 0.039062 4.9414-1.4805 6.8945-3.0547 4.0586-9.3633 6.0352-19.328 6.0352zm-42.277-17.555c3.2344 1.8477 6.6719 3.3203 10.242 4.3867 10.391 3.1172 21.168 4.7773 32.016 4.9375 10.004 0 12.562-2.2852 12.801-2.8359v0.003906c0.003906-0.03125 0.003906-0.0625 0-0.09375-0.10938-0.47656-1.4609-5.2852-9.1445-5.9062h0.003906c-0.55859-0.042968-1.0977-0.19922-1.5938-0.45703-8.6484 3.5469-19.383 1.5898-27.539 0.10938-2.5039-0.45703-4.9023-0.89453-6.7109-1.0625l0.003906 0.003906c-3.3867-0.20312-6.7852 0.10547-10.078 0.91406z"/>
  <path d="m275.89 236.38h-39.789c-2.2734 0-4.1133-1.8398-4.1133-4.1133s1.8398-4.1133 4.1133-4.1133h39.789c2.2734 0 4.1133 1.8398 4.1133 4.1133s-1.8398 4.1133-4.1133 4.1133z"/>
  <path d="m344.05 272.22h-176.09c-2.2695 0-4.1133-1.8398-4.1133-4.1133v-35.875c0-2.2734 1.8438-4.1172 4.1133-4.1172h6.7656c2.2734 0 4.1172 1.8438 4.1172 4.1172 0 2.2695-1.8438 4.1133-4.1172 4.1133h-2.6484v27.613h167.86v-27.613h-2.6367c-2.2695 0-4.1133-1.8438-4.1133-4.1133 0-2.2734 1.8438-4.1172 4.1133-4.1172h6.75c1.0898 0 2.1367 0.43359 2.9062 1.207 0.77344 0.76953 1.207 1.8164 1.207 2.9102v35.84c0.007813 1.0977-0.41797 2.1523-1.1914 2.9297-0.77344 0.78125-1.8242 1.2188-2.9219 1.2188z"/>
  <path d="m305.19 364.09h-98.375c-1.8789 0-3.5195-1.2695-3.9883-3.0898l-23.625-91.867c-0.31641-1.2305-0.042969-2.5391 0.73438-3.5469 0.78125-1.0039 1.9805-1.5898 3.2539-1.5898h145.63-0.003906c1.2734 0 2.4727 0.58594 3.2539 1.5898 0.77734 1.0078 1.0508 2.3164 0.73438 3.5469l-23.625 91.867c-0.46875 1.8203-2.1094 3.0898-3.9883 3.0898zm-95.195-8.2305h92.016l21.504-83.641-135.02 0.003906z"/>
 </g>
</svg>
