<?xml version="1.0" encoding="UTF-8"?>
<svg width="512pt" height="512pt" version="1.1" viewBox="0 0 512 512" xmlns="http://www.w3.org/2000/svg">
 <g fill="#007335">
  <path d="m203.3 289.85c-0.23047 0.019532-0.46484 0.019532-0.69531 0-1.0781-0.18359-2.0352-0.78906-2.668-1.6797s-0.88281-2-0.69531-3.0742c3.6562-21.941-4.1133-43.613-9.8008-55.715-2.5781 14.828-5.2656 40.922 4.2773 53.98v-0.003906c1.3398 1.8398 0.93359 4.4141-0.90625 5.75-1.8359 1.3398-4.4102 0.93359-5.75-0.90625-16-21.941-3.8594-69.832-3.3477-71.863v0.003906c0.42578-1.582 1.7344-2.7695 3.3477-3.0352 1.6133-0.26172 3.2266 0.45312 4.1133 1.8281 0.91406 1.4258 22.273 35.402 16.164 71.312-0.34375 1.9648-2.0469 3.3945-4.0391 3.4023z"/>
  <path d="m224.24 291.98c-1.2383 0.007813-2.4062-0.55078-3.1836-1.5156-17.629-21.594-7.5703-82.871-7.1328-85.469h0.003906c0.20312-1.2656 0.98438-2.3633 2.1172-2.9648 1.1289-0.60547 2.4766-0.64453 3.6406-0.10547 0.75 0.34766 7.5508 3.6562 13.641 16.273 7.7695 15.98 10.973 39.258 9.6562 69.211-0.10156 2.2734-2.0234 4.0352-4.2969 3.9336-2.2734-0.10156-4.0312-2.0273-3.9297-4.2969 2.1016-45.953-7.6445-65.52-13.805-73.145-2.5586 20.316-4.625 57.801 6.4922 71.426h-0.003906c1.4258 1.7656 1.1562 4.3594-0.60156 5.793-0.74219 0.57812-1.6602 0.88281-2.5977 0.85938z"/>
  <path d="m224.16 215.77c-2.0938 0.003907-3.8516-1.5742-4.0781-3.6562-6.6016-61.953 14.355-97.574 15.25-99.055v0.003906c0.83203-1.3867 2.3945-2.1523 4-1.9688 1.6016 0.18359 2.9492 1.2891 3.4453 2.8281 0.60156 1.8281 14.629 45.277 12.91 72.082h-0.003906c-0.039062 1.1055-0.52734 2.1484-1.3516 2.8906-0.82031 0.74609-1.9062 1.125-3.0156 1.0547-1.1055-0.066407-2.1367-0.57812-2.8594-1.418-0.72266-0.83984-1.0781-1.9375-0.98047-3.0391 1.0781-17.699-5.4844-44.324-9.4922-58.789-1.9727 4.9609-3.6602 10.035-5.0469 15.195-5.8047 22.629-7.3945 46.133-4.6797 69.34 0.11719 1.0859-0.20312 2.1719-0.89062 3.0234-0.68359 0.85156-1.6797 1.3945-2.7695 1.5078z"/>
  <path d="m266.81 291.79c-1.2656-0.023437-2.4531-0.625-3.2227-1.625-0.77344-1.0039-1.0469-2.3008-0.74609-3.5312 14.355-55.078 8.8672-105.12 5.1758-126.87-10.77 22.766-33.172 78.629-19.875 126.54h-0.003906c0.60547 2.1914-0.67969 4.457-2.8711 5.0625s-4.457-0.67969-5.0664-2.8711c-9.4336-33.992-1.8281-71.168 6.1797-96.367l0.003906 0.003906c5.0859-16.215 11.703-31.906 19.766-46.867 0.82812-1.4648 2.4648-2.2773 4.1328-2.0508 1.6641 0.22656 3.0273 1.4453 3.4375 3.0742 0.69531 2.6875 16.715 67.09-2.9258 142.43v0.003906c-0.47266 1.8086-2.1133 3.0742-3.9844 3.0703z"/>
  <path d="m300.41 209.79c-0.40625 0-0.81641-0.0625-1.2031-0.18359-1.0469-0.31641-1.9219-1.0352-2.4336-2-0.51172-0.96484-0.61719-2.0977-0.29297-3.1367 1.8828-7.6211 3.0234-15.402 3.4023-23.242-5.4766 1.2734-11.203 0.94531-16.492-0.94922-5.293-1.8945-9.9297-5.2734-13.352-9.7305-0.53125-0.76953-0.78516-1.6992-0.71094-2.6328 2.3945-34.176 30.938-72.52 32.145-74.129 1.0664-1.3281 2.8398-1.8633 4.4609-1.3438 1.6211 0.51953 2.7539 1.9844 2.8516 3.6836 0 2.543 1.4805 46.301-0.42187 79.562v0.40234c-0.75 12.801-2.0117 24.172-4.043 30.793l0.003906-0.003907c-0.52734 1.7227-2.1133 2.8984-3.9141 2.9102zm-22.801-42.898c2.4336 2.707 10.02 9.3984 22.73 5.7422 1.0977-21.941 0.85938-48.129 0.56641-63.414-8.3398 13.145-21.266 36.551-23.297 57.672z"/>
  <path d="m295.62 289.85c-1.5703-0.015625-2.9961-0.91406-3.6797-2.3242-0.6875-1.4141-0.51562-3.0898 0.44141-4.332 10.312-13.219 13.914-55.426 14.848-82.891-16.676 31.086-31.781 61.66-31.855 66.723l0.003906 0.003906c-0.019531 2.2539-1.8242 4.082-4.0781 4.1328-2.207 0.039063-4.0352-1.707-4.0938-3.9141-0.3125-10.129 31.195-68.059 40.852-85.578h-0.003906c0.90625-1.6367 2.8008-2.4609 4.6133-2 1.8164 0.46094 3.0898 2.0859 3.1055 3.957 0 3.3633 0.29297 82.633-16.859 104.63v0.003906c-0.78906 1.0117-2.0078 1.6016-3.293 1.5898z"/>
  <path d="m334.15 292.15c-0.63672-0.011719-1.2656-0.17188-1.8281-0.47656-1.9805-1.0469-2.7578-3.4883-1.7383-5.4844 7.7148-14.629 7.4805-47.543 6.4531-68.059-5.1914 13.277-11.848 31.523-13.898 42.496-3.9297 21.285-25.18 30.391-26.074 30.758l0.003906-0.003907c-1.0156 0.47266-2.1797 0.51172-3.2266 0.10547-1.043-0.40234-1.8789-1.2188-2.3086-2.25-0.43359-1.0352-0.42188-2.1992 0.023438-3.2266 0.44922-1.0273 1.2969-1.8281 2.3477-2.2188 0.16406 0 18.031-7.8281 21.156-24.668 3.6562-19.566 20.316-58.898 21.027-60.562v0.003906c0.73438-1.7305 2.5469-2.7461 4.4023-2.4648 1.8594 0.28125 3.2891 1.7812 3.4805 3.6523 0.27344 2.6875 6.6211 66.031-6.1094 90.258-0.73828 1.3516-2.168 2.1758-3.7109 2.1406z"/>
  <path d="m240.71 148.75c-5.2031-0.3125-10.156-2.3203-14.102-5.7227-1.7461-1.4531-1.9844-4.0508-0.52734-5.7969 1.4531-1.7461 4.0469-1.9844 5.7969-0.53125 0 0 7.8086 6.2539 11.832 2.7227l-0.003906 0.003907c0.82422-0.73047 1.9023-1.1016 2.9961-1.0312 1.0938 0.066406 2.1211 0.56641 2.8477 1.3867 1.5156 1.7109 1.3555 4.3281-0.35547 5.8438-2.3359 2.0742-5.3633 3.1914-8.4844 3.125z"/>
  <path d="m236.88 163.55c-4.6406-0.042969-9.2031-1.1641-13.332-3.2734-1.918-1.1289-2.5859-3.5781-1.5156-5.5273 1.0742-1.9492 3.5039-2.6914 5.4844-1.6758 0.47656 0.25781 10.641 5.5781 18.945-1.1172h-0.003906c1.7734-1.4219 4.3633-1.1406 5.7891 0.63281 1.4258 1.7734 1.1406 4.3633-0.62891 5.7852-4.1602 3.3945-9.375 5.2266-14.738 5.1758z"/>
  <path d="m234.95 179.77c-4.9727-0.070313-9.8086-1.6367-13.879-4.4961-1.6914-1.4258-1.957-3.9297-0.60156-5.6758 1.3594-1.7461 3.8516-2.1055 5.6484-0.81641 1.1328 0.83984 11.117 7.8086 21.633-4.1523 0.72656-0.81641 1.75-1.3164 2.8438-1.3789 1.0938-0.066406 2.168 0.30469 2.9883 1.0312 1.707 1.5156 1.8633 4.1289 0.34766 5.8359-6.582 7.4414-13.332 9.6523-18.98 9.6523z"/>
  <path d="m237.44 198.49c-9.3242 0-16.895-6.5664-17.242-6.875h-0.003907c-1.707-1.5156-1.8594-4.1289-0.34766-5.8359 1.5156-1.707 4.1289-1.8594 5.8359-0.34766 0 0 6.5469 5.4844 13.219 4.7344 3.5469-0.45703 6.582-2.6523 9.3086-6.6758v0.003906c1.2734-1.8828 3.832-2.3789 5.7148-1.1055 1.8828 1.2734 2.3789 3.832 1.1055 5.7148-4.0781 6.0352-9.1445 9.4727-15.121 10.238-0.82031 0.097656-1.6445 0.14453-2.4688 0.14844z"/>
  <path d="m263.52 215.02c-5.5547-0.015626-11.016-1.418-15.891-4.0781-8.4297 7.1484-20.848 3.3086-26.754 0h0.003906c-0.98828-0.52344-1.7188-1.4258-2.0273-2.4961-0.30859-1.0703-0.16797-2.2227 0.38672-3.1875 0.55469-0.96875 1.4805-1.668 2.5586-1.9414 1.082-0.27344 2.2266-0.09375 3.1758 0.49219 0.12891 0 12.801 7.1875 18.742-0.54688 0.67187-0.87891 1.668-1.4453 2.7617-1.5742 1.0977-0.13672 2.207 0.17188 3.0742 0.85938 7.2305 4.957 16.539 5.7422 24.5 2.0664 2.0664-0.80469 4.3984 0.16797 5.2734 2.2031 0.87891 2.0352-0.015624 4.4023-2.0156 5.3477-4.3555 1.8789-9.0469 2.8516-13.789 2.8555z"/>
  <path d="m237.95 229.56c-2.7812-0.046875-5.5391-0.48828-8.1914-1.3164-2.168-0.6875-3.3672-3-2.6797-5.1641 0.6875-2.168 3-3.3672 5.1641-2.6797 3.5117 1.0977 7.5352 1.1875 8.2656 0.47656 0.63672-0.89062 1.5977-1.4883 2.6758-1.668 1.0742-0.17578 2.1797 0.078125 3.0664 0.71484 1.8477 1.3242 2.2734 3.8945 0.94922 5.7422-2.2578 2.7383-5.7148 4.1953-9.25 3.8945z"/>
  <path d="m239.4 245.03c-1.8555-0.042969-3.6797-0.44531-5.3789-1.1875-2.0938-0.87891-3.082-3.2891-2.2031-5.3867 0.87891-2.0938 3.2891-3.082 5.3867-2.2031 0.58984 0.23438 1.2031 0.40625 1.8281 0.51172 1.5664-1.1758 3.75-1.082 5.2109 0.22656 1.4609 1.3047 1.7969 3.4609 0.80469 5.1523-1.1992 1.9375-3.375 3.0508-5.6484 2.8867z"/>
  <path d="m190.76 243.05c-2.8203-0.039063-5.6094-0.59766-8.2305-1.6484-1.0469-0.375-1.8984-1.1602-2.3594-2.1797-0.45703-1.0156-0.48438-2.1719-0.070313-3.207 0.41016-1.0391 1.2227-1.8633 2.2539-2.2891 1.0312-0.42188 2.1914-0.41016 3.2109 0.035156 2.5586 1.0039 6.9102 1.6445 7.6055 0.34766h0.003906c1.0625-2.0195 3.5664-2.793 5.5859-1.7305 2.0195 1.0664 2.793 3.5664 1.7266 5.5859-1.9805 3.4414-5.7734 5.4219-9.7266 5.0859z"/>
  <path d="m189.64 255.87c-2.8789 0.011718-5.7266-0.56641-8.375-1.6992-2.0586-0.96094-2.9531-3.4062-1.9922-5.4688 0.96094-2.0586 3.4062-2.9531 5.4688-1.9922 4.4102 1.832 9.4883 0.86719 12.926-2.4492 1.6484-1.4961 4.1836-1.4102 5.7266 0.19141s1.5352 4.1406-0.019531 5.7305c-3.6328 3.6562-8.582 5.707-13.734 5.6875z"/>
  <path d="m184.05 268.89c-2.2031 0.019531-4.0312-1.7031-4.1445-3.9023-0.11328-2.2031 1.5273-4.1016 3.7227-4.3086 0.18359 0 11.723-1.3711 14.629-8.7031 0.83203-2.1133 3.2227-3.1562 5.3398-2.3203 2.1133 0.83203 3.1562 3.2227 2.3203 5.3398-4.7695 11.977-20.77 13.805-21.449 13.805z"/>
  <path d="m187.15 284.12c-2.0195-0.007812-3.7383-1.4805-4.0547-3.4766-0.3125-2 0.87109-3.9297 2.793-4.5508 5.4844-1.8281 13.824-6.2891 14.355-10.258v-0.003906c0.30469-2.25 2.375-3.832 4.6289-3.5273 2.25 0.30469 3.832 2.375 3.5273 4.625-1.4258 10.68-18.086 16.457-19.969 16.988-0.41406 0.12891-0.84375 0.19922-1.2812 0.20312z"/>
  <path d="m221.71 228.57c-3.3867 0.0625-6.6328-1.3281-8.9258-3.8203-1.4844-1.7227-1.2891-4.3203 0.42969-5.8047 1.7227-1.4844 4.3242-1.293 5.8086 0.42969 0.47656 0.47656 2.9805 2.5234 8.3398-1.2812h-0.003907c0.89062-0.67188 2.0117-0.95703 3.1133-0.78906 1.1016 0.17187 2.0859 0.78125 2.7305 1.6875 0.64453 0.91016 0.89062 2.043 0.6875 3.1367-0.20703 1.0977-0.84766 2.0625-1.7773 2.6758-2.9844 2.3164-6.625 3.6367-10.402 3.7656z"/>
  <path d="m223.43 240.62c-3.3594 0.027344-6.668-0.80469-9.6172-2.4141-1.8828-1.1953-2.4727-3.6719-1.3242-5.5859 1.1445-1.9102 3.6055-2.5664 5.5469-1.4727 4.4062 2.1133 9.6328 1.4961 13.422-1.5898 0.87891-0.69141 2.0039-0.99609 3.1094-0.83984 1.1094 0.15234 2.1055 0.75391 2.7656 1.6602 0.65625 0.90234 0.91406 2.0391 0.71875 3.1406-0.19922 1.1016-0.83594 2.0742-1.7656 2.6953-3.6992 2.8164-8.207 4.3594-12.855 4.4062z"/>
  <path d="m225.77 255.71c-4.0039-0.023437-7.957-0.88281-11.609-2.5234-2.0234-0.99609-2.8672-3.4297-1.8984-5.4648 0.97266-2.0312 3.3984-2.9062 5.4453-1.957 0.4375 0.21875 10.094 4.625 16.824-1.5547h-0.003906c1.6719-1.543 4.2773-1.4336 5.8164 0.23828 1.5391 1.668 1.4336 4.2734-0.23828 5.8125-3.9023 3.5898-9.0352 5.543-14.336 5.4492z"/>
  <path d="m226.47 272.13c-3.9336-0.023437-7.8438-0.64062-11.594-1.8281-2.1523-0.75-3.2891-3.0977-2.543-5.25 0.75-2.1523 3.0977-3.2891 5.25-2.543 3.3477 1.1523 13.129 3.1094 18.285-1.5195v0.003907c0.79297-0.81641 1.8906-1.2695 3.0312-1.2461 1.1406 0.019531 2.2188 0.51562 2.9805 1.3633 0.76172 0.84766 1.1406 1.9727 1.0391 3.1094-0.10156 1.1367-0.66797 2.1797-1.5664 2.8789-4.1562 3.4805-9.4688 5.2734-14.883 5.0312z"/>
  <path d="m224.29 285.04c-1.5898 0-3.0703 0-4.3711-0.10937-1.125 0.003906-2.207-0.45313-2.9883-1.2656-0.77734-0.8125-1.1914-1.9062-1.1445-3.0352 0.050782-1.125 0.5625-2.1797 1.4102-2.918 0.85156-0.74219 1.9688-1.0977 3.0898-0.99219 6.6367 0.29297 14.023-0.34766 15.617-1.3711h-0.003906c1.5469-1.668 4.1484-1.7656 5.8164-0.22266 1.668 1.5469 1.7656 4.1523 0.21875 5.8164-3 3.3633-11.137 4.0977-17.645 4.0977z"/>
  <path d="m266.11 179.2c-3.625-0.015625-7.1523-1.1484-10.113-3.2344-1.8242-1.3594-2.1992-3.9375-0.83984-5.7617 1.3555-1.8242 3.9375-2.1992 5.7578-0.83984 3.0234 2.1641 7.0898 2.1641 10.113 0 0.88281-0.66797 2-0.95312 3.0938-0.78906 1.0938 0.16797 2.0781 0.76562 2.7266 1.6641 0.64453 0.89844 0.90234 2.0195 0.71484 3.1133-0.19141 1.0898-0.8125 2.0586-1.7266 2.6836-2.8164 2.0742-6.2305 3.1836-9.7266 3.1641z"/>
  <path d="m266.39 199.04c-6.1289 0.023438-12.086-2.0469-16.879-5.8672-1.707-1.5156-1.8633-4.1289-0.34766-5.8359 1.5156-1.707 4.1289-1.8594 5.8359-0.34766 2.7266 2.0508 5.9453 3.3438 9.3359 3.7461 3.3867 0.40625 6.8203-0.089844 9.9531-1.4414 1.0273-0.42969 2.1836-0.42188 3.207 0.015625 1.0234 0.4375 1.8242 1.2695 2.2227 2.3086 0.39844 1.0391 0.35938 2.1953-0.10938 3.2031-0.46875 1.0078-1.3242 1.7852-2.375 2.1523-3.4531 1.3594-7.1328 2.0625-10.844 2.0664z"/>
  <path d="m261.48 230.49c-7.0195 0.066406-13.898-1.957-19.766-5.8164-0.94141-0.61719-1.5898-1.5938-1.793-2.7031-0.19922-1.1094 0.0625-2.25 0.72656-3.1602 0.66406-0.91016 1.6719-1.5117 2.7891-1.6562 1.1172-0.14453 2.2461 0.17188 3.125 0.88281 0.51172 0.36719 11.902 8.2852 27.684 1.4609 1.0078-0.47656 2.168-0.52344 3.2109-0.12891 1.0469 0.39453 1.8828 1.1953 2.3242 2.2227 0.44531 1.0234 0.44922 2.1836 0.019532 3.2148-0.42969 1.0273-1.2617 1.8398-2.3008 2.2461-5.0469 2.2305-10.5 3.4023-16.02 3.4375z"/>
  <path d="m260.68 255.71c-8.1406-0.21875-15.969-3.1836-22.215-8.4102-1.7266-1.4805-1.9297-4.0781-0.44922-5.8047 1.4805-1.7305 4.0781-1.9297 5.8047-0.44922 0.60156 0.51172 14.629 12.25 27.957 2.8359l0.003906-0.003906c1.8516-1.3164 4.4219-0.88281 5.7422 0.97266 1.3164 1.8516 0.88281 4.4219-0.96875 5.7383-4.6211 3.3398-10.176 5.1289-15.875 5.1211z"/>
  <path d="m258.49 276.43c-7.6367-0.32031-14.891-3.4023-20.426-8.668-1.6484-1.5703-1.707-4.1797-0.13672-5.8242 1.5703-1.6445 4.1758-1.707 5.8242-0.13672 0.54688 0.51172 13.457 12.434 24.777 2.2656 1.6992-1.4141 4.2148-1.2266 5.6914 0.42188s1.3867 4.168-0.20703 5.707c-4.1992 3.9688-9.7461 6.1992-15.523 6.2344z"/>
  <path d="m298.28 134.89c-1.2461 0.015625-2.4805-0.17969-3.6562-0.58594-6.9492-2.4141-9.3633-10.973-9.6172-12.016h-0.003906c-0.27344-1.0547-0.12109-2.1797 0.43359-3.1211 0.55078-0.94531 1.4531-1.6289 2.5117-1.9062 2.2031-0.57422 4.4531 0.74219 5.0273 2.9453 0.45703 1.8281 2.1406 5.4844 4.3711 6.3281 1.6445 0.56641 3.8203-0.69531 5.3594-1.8281v-0.003907c1.8125-1.2852 4.3242-0.89844 5.6641 0.87891 1.3398 1.7734 1.0234 4.293-0.71094 5.6875-2.6406 2.207-5.9375 3.4805-9.3789 3.6211z"/>
  <path d="m297.05 148.24c-9.6172 0-18.047-6.3633-18.504-6.7305-1.8047-1.3828-2.1445-3.9648-0.75781-5.7695 1.3828-1.8008 3.9648-2.1406 5.7656-0.75781 0.10937 0.089844 10.863 8.1367 18.906 3.6562h0.003906c1.9766-1.0469 4.4297-0.32031 5.5195 1.6328 1.0898 1.957 0.41797 4.4258-1.5156 5.5547-2.8789 1.6055-6.1211 2.4375-9.418 2.4141z"/>
  <path d="m296.94 166.12c-13.586 0-23.371-9.2891-23.77-9.7656-0.82422-0.74609-1.3125-1.793-1.3477-2.9062-0.039063-1.1133 0.375-2.1914 1.1484-2.9922 0.76953-0.80078 1.832-1.2578 2.9453-1.2617 1.1133-0.003907 2.1797 0.44141 2.957 1.2383 0.47656 0.4375 11.465 10.734 24.867 6.3828v-0.003906c2.0078-0.30469 3.9375 0.89453 4.5469 2.8281 0.61328 1.9336-0.27734 4.0273-2.0938 4.9258-2.9844 1.0039-6.1055 1.5273-9.2539 1.5547z"/>
  <path d="m291.47 199.79c-6.4414-0.046874-12.723-2.0273-18.027-5.6875-1.8203-1.3672-2.1836-3.9492-0.81641-5.7695 1.3711-1.8164 3.9531-2.1797 5.7695-0.8125 6.707 4.5469 15.309 5.2422 22.656 1.8281 0.99609-0.51953 2.1602-0.60938 3.2227-0.25 1.0625 0.35547 1.9336 1.1328 2.4102 2.1484s0.51562 2.1836 0.11328 3.2305c-0.40234 1.0469-1.2188 1.8828-2.2539 2.3125-4.0781 1.9609-8.5469 2.9844-13.074 3z"/>
  <path d="m290.34 222.12c-5.5859-0.33203-11.047-1.8125-16.035-4.3516-1.7578-1.1406-2.3789-3.418-1.4414-5.293 0.93359-1.875 3.1328-2.7461 5.0977-2.0234 4.1875 2.1016 11.52 4.4453 14.793 3.1094 2.1016-0.86719 4.5078 0.12891 5.375 2.2305 0.87109 2.1016-0.12891 4.5078-2.2305 5.375-1.7734 0.66797-3.6602 0.99219-5.5586 0.95313z"/>
  <path d="m282.55 240.71c-3.1797-0.125-6.2969-0.92578-9.1445-2.3438-1.7578-1.1367-2.3789-3.418-1.4414-5.293 0.9375-1.8711 3.1328-2.7422 5.1016-2.0195 2.2305 1.0977 5.3594 1.8281 6.1797 1.4258 2.0195-1.082 4.5312-0.32031 5.6133 1.6992 1.082 2.0195 0.32031 4.5352-1.6992 5.6172-1.4375 0.67969-3.0195 0.99219-4.6094 0.91406z"/>
  <path d="m309.63 211.82c-4.7344 0-9.5078-3.3828-11.062-4.5898-0.91016-0.65234-1.5156-1.6445-1.6758-2.75-0.16016-1.1094 0.13672-2.2344 0.82422-3.1172 0.6875-0.88281 1.7031-1.4492 2.8164-1.5664 1.1133-0.11719 2.2266 0.22266 3.082 0.94531 2.1406 1.6445 5.1758 3.0547 6.1445 2.8516 2.1484-0.72656 4.4805 0.42969 5.2109 2.5781 0.71094 2.1641-0.45703 4.5-2.6172 5.2305-0.87891 0.28516-1.7969 0.42578-2.7227 0.41797z"/>
  <path d="m308.26 228.57c-9.1445 0-14.867-7.4414-16.66-11.703-0.75-2.0508 0.23438-4.332 2.2461-5.1914 2.0078-0.86328 4.3359-0.003906 5.3047 1.957 0.16406 0.36719 3.4023 7.5352 10.332 6.6367 1.1055-0.1875 2.2383 0.085938 3.1406 0.75 0.89844 0.66797 1.4883 1.6758 1.6289 2.7852 0.14062 1.1094-0.17578 2.2305-0.87891 3.1055-0.70312 0.87109-1.7305 1.418-2.8477 1.5156-0.75 0.10156-1.5078 0.15234-2.2656 0.14453z"/>
  <path d="m303.87 250.88c-5.1211 0-10.059-2.3945-14.5-7.0781v0.003907c-2.5469-2.7227-4.6836-5.8047-6.3438-9.1445-0.96094-2.0586-0.066406-4.5078 1.9922-5.4688 2.0586-0.95703 4.5078-0.066406 5.4688 1.9961 0 0.18359 6.6758 13.844 16 11.098 2.1797-0.64062 4.4688 0.60938 5.1094 2.7891 0.64062 2.1797-0.60547 4.4688-2.7891 5.1094-1.6055 0.46484-3.2656 0.69531-4.9375 0.69531z"/>
  <path d="m303.78 270.5c-20.625 0-28.141-18.816-28.453-19.621-0.44922-1.0273-0.46484-2.1914-0.035156-3.2305 0.42969-1.0352 1.2656-1.8516 2.3086-2.2578 1.0469-0.40625 2.2148-0.36719 3.2305 0.10547s1.7969 1.3398 2.1562 2.4023c0.25781 0.66016 5.9062 14.371 20.789 14.371l0.003906 0.003907c2.2734 0 4.1133 1.8398 4.1133 4.1133 0 2.2734-1.8398 4.1133-4.1133 4.1133z"/>
  <path d="m295.3 284.45c-13.641 0-26.605-10.367-27.211-10.863-0.91406-0.66016-1.5195-1.6719-1.6641-2.793-0.14844-1.1211 0.16797-2.2539 0.88281-3.1289 0.71094-0.87891 1.7539-1.4258 2.8789-1.5117 1.1289-0.085938 2.2422 0.29297 3.0781 1.0547 0.18359 0.14453 13.676 10.863 25.051 8.7422v-0.003906c2.2383-0.41797 4.3906 1.0547 4.8086 3.293 0.42188 2.2344-1.0547 4.3906-3.2891 4.8086-1.4961 0.26953-3.0156 0.40234-4.5352 0.40234z"/>
  <path d="m339.29 236.05c-4.7539 0-10.129-3.1992-12.691-4.957-1.8828-1.2695-2.3789-3.8281-1.1055-5.7148 1.2695-1.8828 3.8281-2.3789 5.7148-1.1055 2.9062 1.9766 6.7109 3.6562 8.082 3.5664 1.8398-1.2656 4.3594-0.82812 5.6641 0.98828 1.3086 1.8125 0.92578 4.3398-0.85547 5.6875-1.3828 1.043-3.0781 1.582-4.8086 1.5352z"/>
  <path d="m338.85 252.47c-6.8555 0-14.629-7.1875-17.152-9.7656-1.5039-1.625-1.4531-4.1523 0.12109-5.7148 1.5703-1.5625 4.0977-1.5977 5.7148-0.082032 4.5352 4.5547 9.9648 7.7539 11.41 7.3125 2.0195-1.0508 4.5078-0.26172 5.5586 1.7578 1.0508 2.0195 0.26172 4.5078-1.7578 5.5586-1.1992 0.625-2.5391 0.94531-3.8945 0.93359z"/>
  <path d="m338.09 264.1c-9.4336 0-18.688-9.1445-19.84-10.332-0.84766-0.76172-1.3438-1.8359-1.3672-2.9727-0.023437-1.1406 0.42188-2.2344 1.2344-3.0312 0.81641-0.79688 1.9219-1.2188 3.0586-1.168 1.1367 0.046875 2.2031 0.56641 2.9414 1.4297 3.0547 3.0898 10.824 9.0312 15.434 7.6445 2.1836-0.65234 4.4766 0.58984 5.1289 2.7695 0.65234 2.1797-0.58984 4.4766-2.7695 5.1289-1.2422 0.35547-2.5273 0.53516-3.8203 0.53125z"/>
  <path d="m333.07 283.01c-7.8828 0-15.855-6.7656-20.113-11.832-1.457-1.7461-1.2188-4.3398 0.53125-5.7969 1.7461-1.4531 4.3398-1.2148 5.793 0.53125 2.6328 3.1641 11.301 11.41 16.348 8.0625v0.003906c0.91016-0.60547 2.0234-0.82422 3.0938-0.60547 1.0703 0.21484 2.0078 0.84766 2.6133 1.7539 1.2578 1.8945 0.74219 4.4492-1.1523 5.707-2.1016 1.418-4.5781 2.1758-7.1133 2.1758z"/>
  <path d="m317.75 292.15c-0.97656-0.003906-1.9258-0.35547-2.668-0.98828-3.6484-3.2812-6.6328-7.2305-8.7969-11.629-0.51953-0.99609-0.60938-2.1602-0.25-3.2227 0.35547-1.0625 1.1328-1.9336 2.1484-2.4102 1.0156-0.47656 2.1836-0.51562 3.2305-0.11328 1.043 0.40234 1.8828 1.2188 2.3125 2.2539 1.6719 3.3359 3.9414 6.3438 6.6953 8.8672 1.3672 1.1055 1.8828 2.957 1.2773 4.6094-0.60156 1.6562-2.1875 2.7422-3.9492 2.7031z"/>
  <path d="m344.05 327.99h-176.09c-2.2695 0-4.1133-1.8438-4.1133-4.1172v-35.84c0-2.2695 1.8438-4.1133 4.1133-4.1133h176.09c2.2695 0 4.1133 1.8438 4.1133 4.1133v35.84c0 2.2734-1.8438 4.1172-4.1133 4.1172zm-171.98-8.2305h167.86v-27.613l-167.86 0.003906z"/>
  <path d="m305.19 419.86h-98.375c-1.8789 0-3.5195-1.2734-3.9883-3.0898l-23.625-91.867c-0.31641-1.2344-0.042969-2.543 0.73438-3.5469 0.78125-1.0039 1.9805-1.5938 3.2539-1.5938h145.63-0.003906c1.2734 0 2.4727 0.58984 3.2539 1.5938 0.77734 1.0039 1.0508 2.3125 0.73438 3.5469l-23.625 91.867c-0.46875 1.8164-2.1094 3.0898-3.9883 3.0898zm-95.195-8.2305h92.016l21.504-83.641-135.02 0.003907z"/>
 </g>
</svg>
