<?xml version="1.0" encoding="UTF-8"?>
<svg width="512pt" height="512pt" version="1.1" viewBox="0 0 512 512" xmlns="http://www.w3.org/2000/svg">
 <g fill="#007335">
  <path d="m262.11 258.2c-0.23828 0.015626-0.47656 0.015626-0.71484 0-2.2344-0.39062-3.7344-2.5195-3.3477-4.7539 0.89453-5.9141 1.0234-11.918 0.38672-17.867-0.22656-2.8516 0.32031-5.7148 1.5898-8.2812-0.89844 0.75391-2.0742 1.0898-3.2383 0.92969-2.0312-0.27344-3.5469-2.0078-3.5469-4.0586v-29.441c0.42188-15.031 0.93359-16.566 7.8438-23.605 2.3047-2.3398 5.4844-5.4844 9.7812-10.824 7.1328-8.6289 7.5352-13.457 7.1484-15.562h0.003906c-0.14844-0.85156-0.52734-1.6484-1.0977-2.3047-3.457 0.87891-12.801 4.918-15.508 22.93l0.003906 0.003906c-0.34375 2.2461-2.4453 3.7891-4.6914 3.4453s-3.7891-2.4453-3.4453-4.6914c4.3516-28.727 23.66-30.098 24.484-30.137v0.003907c0.69922-0.050781 1.3984 0.089843 2.0273 0.40234 3.2227 1.7617 5.5039 4.8516 6.2344 8.4453 1.3711 6.3281-1.5898 13.969-8.8125 22.711-4.5547 5.4844-7.8633 8.8867-10.258 11.336-5.1367 5.2305-5.1367 5.2305-5.4844 17.957v4.5898c4.9375-11.867 11.703-24.062 19.418-26.77 8.2656-2.8906 12.305 1.0625 13.66 2.8906 4.5547 6.1445 2.0664 16.895-2.9453 23.77-1.8281 2.5234-4.5547 5.6328-7.6797 9.1445-6.7109 7.7344-17.977 20.68-17.297 26.004 0.73828 6.7539 0.58594 13.578-0.45703 20.297-0.33203 1.9844-2.0508 3.4375-4.0586 3.4375zm24.246-78.336c-0.94922 0.046875-1.8867 0.23828-2.7812 0.56641-7.3125 2.5781-17.098 26.586-21.941 43.539 3.4375-6.1094 9.2539-13.055 16.035-20.863 2.8906-3.3086 5.5938-6.4375 7.3125-8.6875 3.8398-5.2461 4.4453-11.977 2.9805-13.969h0.003906c-0.40625-0.45312-1.0117-0.67187-1.6094-0.58594z"/>
  <path d="m247.08 258.2c-2.2734 0-4.1172-1.8438-4.1172-4.1172 0-2.1562-0.27344-10.496-3.8398-26.68-1.8281-8.3008-4.625-10.113-10.148-13.715v0.003906c-7.168-4.4141-13.496-10.07-18.688-16.695-14.793-18.285-6.2539-35.402 0.3125-41.855 0.20703-0.19922 0.43359-0.375 0.67578-0.53125 2.832-1.6914 6.3281-1.8359 9.2891-0.38281 2.2812 1.1445 4.1836 2.9219 5.4844 5.1172-0.53125-13.512 2.3789-30.191 15.051-33.152v0.003906c3.9375-0.99219 8.1094-0.054687 11.246 2.5234 9.6172 7.8828 9.1445 28.305 9.1445 29.258-0.29297 9.4727-7.5898 25.984-7.8984 26.68l-0.003906-0.003906c-0.4375 1.0156-1.2695 1.8086-2.3008 2.1992-1.0352 0.39453-2.1836 0.35156-3.1836-0.11328-0.5-0.21875-0.94531-0.53516-1.3164-0.93359 0.47266 0.56641 0.78906 1.2461 0.91406 1.9766 0 0.49219 1.9766 12.414 1.3359 18.945l-0.003906-0.003906c-0.125 1.1641-0.73828 2.2188-1.6797 2.9102-0.94141 0.6875-2.1328 0.9375-3.2734 0.69531-0.69531-0.14453-17.098-3.8945-20.48-28.105-1.6445-16.602-5.4844-19.859-6.582-20.48-0.35547-0.1875-0.75781-0.25-1.1523-0.18359-2.2656 2.5781-11.668 14.922 0.76953 30.355h-0.003906c4.6758 5.9375 10.363 11.004 16.805 14.957 5.9805 3.875 11.137 7.3125 13.695 18.852 3.6562 16.457 4.043 25.398 4.043 28.434-0.039063 2.2383-1.8594 4.0312-4.0938 4.043zm-15.176-76.195c1.5352 9.6719 5.4844 14.812 8.9062 17.48-0.21875-3.1641-0.64062-6.5078-0.96875-8.7773h-0.003906c-3.1289-2.4219-5.8164-5.3672-7.9375-8.707zm12.395-47.965c-0.48828 0-0.97266 0.0625-1.4453 0.18359-8.832 2.0469-10.332 21.648-7.5156 34.742 1.3398 6.4141 5.0742 12.078 10.441 15.836 0.32031 0.1875 0.60938 0.42188 0.85938 0.69531-1.0039-1.207-1.2383-2.8828-0.60156-4.3164 1.9375-4.332 6.9844-17.062 7.1875-23.59 0.19922-7.1328-1.5352-18.836-6.0898-22.566v0.003907c-0.79687-0.66406-1.8008-1.0156-2.8359-0.98828z"/>
  <path d="m344.05 294.4h-176.09c-2.2695 0-4.1133-1.8398-4.1133-4.1133v-35.84c0-2.2734 1.8438-4.1133 4.1133-4.1133h176.09c2.2695 0 4.1133 1.8398 4.1133 4.1133v35.84c0 2.2734-1.8438 4.1133-4.1133 4.1133zm-171.98-8.2305h167.86v-27.613l-167.86 0.003906z"/>
  <path d="m305.19 386.2h-98.375c-1.8828 0.007813-3.5273-1.2695-3.9883-3.0898l-23.625-91.867c-0.31641-1.2344-0.042969-2.543 0.73438-3.5469 0.78125-1.0039 1.9805-1.5938 3.2539-1.5938h145.63-0.003906c1.2734 0 2.4727 0.58984 3.2539 1.5938 0.77734 1.0039 1.0508 2.3125 0.73438 3.5469l-23.625 91.867c-0.46094 1.8203-2.1055 3.0977-3.9883 3.0898zm-95.195-8.2305h92.016l21.504-83.566h-135.02z"/>
 </g>
</svg>
