<?xml version="1.0" encoding="UTF-8" standalone="no"?>
<!DOCTYPE svg PUBLIC "-//W3C//DTD SVG 1.1//EN" "http://www.w3.org/Graphics/SVG/1.1/DTD/svg11.dtd">
<svg width="100%" height="100%" viewBox="0 0 1277 332" version="1.1" xmlns="http://www.w3.org/2000/svg" xmlns:xlink="http://www.w3.org/1999/xlink" xml:space="preserve" xmlns:serif="http://www.serif.com/" style="fill-rule:evenodd;clip-rule:evenodd;stroke-linejoin:round;stroke-miterlimit:2;">
    <g transform="matrix(24.4855,0,0,24.4855,-4558.9,-4678.21)">
        <g transform="matrix(0.0737945,0,0,0.0628792,113.17,190.999)">
            <path d="M1695.71,44.173C1695.71,20.379 1679.25,1.061 1658.98,1.061L1026.5,1.061C1006.34,1.061 989.98,20.265 989.98,43.919L989.98,216.617L1658.98,216.617C1679.25,216.617 1695.71,197.3 1695.71,173.506L1695.71,44.173ZM1685.75,44.173L1685.75,173.506C1685.75,190.847 1673.75,204.926 1658.98,204.926C1658.98,204.926 999.942,204.926 999.942,204.926C999.942,204.926 999.942,43.919 999.942,43.919C999.942,26.718 1011.84,12.753 1026.5,12.753L1658.98,12.753C1673.75,12.753 1685.75,26.831 1685.75,44.173Z" style="fill:rgb(189,0,0);"/>
        </g>
        <g transform="matrix(0.0493815,0,0,0.0408405,139.581,191.174)">
            <path d="M1020.03,242.413L1020.03,141.613L1002.64,141.613L1002.64,120.013L1039.09,120.013L1039.09,127.789C1044.33,122.605 1050.68,120.013 1058.14,120.013L1082.67,120.013L1082.67,143.053L1055.76,143.053C1050.68,143.053 1046.87,145.021 1044.33,148.957C1041.79,152.893 1040.43,156.877 1040.28,160.909L1040.28,242.413L1066.24,242.413L1066.24,264.013L1002.64,264.013L1002.64,242.413L1020.03,242.413Z" style="fill-rule:nonzero;"/>
        </g>
        <g transform="matrix(0.0493815,0,0,0.0408405,139.581,191.174)">
            <path d="M1148.89,264.013C1134.92,264.013 1124.67,260.413 1118.16,253.213C1111.65,246.013 1108.4,234.253 1108.4,217.933L1108.4,166.093C1108.4,149.581 1111.34,137.773 1117.21,130.669C1123.09,123.565 1132.85,120.013 1146.51,120.013L1157.7,120.013C1168.98,120.013 1177.51,123.805 1183.31,131.389C1189.1,138.973 1192,150.061 1192,164.653L1192,202.093L1128.64,202.093L1128.64,223.693C1128.64,229.645 1130.15,234.253 1133.17,237.517C1136.19,240.781 1140.63,242.413 1146.51,242.413L1184.38,242.413L1184.38,264.013L1148.89,264.013ZM1172.23,158.893C1172.23,153.901 1170.88,149.773 1168.18,146.509C1165.48,143.245 1162.07,141.613 1157.94,141.613L1144.13,141.613C1138.41,141.613 1134.4,143.197 1132.1,146.365C1129.8,149.533 1128.64,154.189 1128.64,160.333L1128.64,180.493L1172.23,180.493L1172.23,158.893Z" style="fill-rule:nonzero;"/>
        </g>
        <g transform="matrix(0.0493815,0,0,0.0408405,139.581,191.174)">
            <path d="M1304.43,274.093C1304.43,287.149 1301.21,296.893 1294.78,303.325C1288.35,309.757 1278.31,312.973 1264.65,312.973L1215.11,312.973L1215.11,291.373L1267.03,291.373C1272.75,291.373 1277.03,290.029 1279.89,287.341C1282.75,284.653 1284.18,281.197 1284.18,276.973L1284.18,267.757C1284.18,263.341 1282.75,259.837 1279.89,257.245C1277.03,254.653 1272.75,253.357 1267.03,253.357L1225.82,253.357L1225.82,213.613C1220.58,210.157 1216.69,205.165 1214.15,198.637C1211.61,192.109 1210.34,183.661 1210.34,173.293L1210.34,166.093C1210.34,149.965 1213.64,138.253 1220.23,130.957C1226.82,123.661 1237.02,120.013 1250.83,120.013L1300.85,120.013L1300.85,173.293C1300.85,187.693 1297.6,198.973 1291.09,207.133C1284.58,215.293 1275.92,219.373 1265.12,219.373L1246.07,219.373L1246.07,231.757L1264.65,231.757C1278.31,231.757 1288.35,234.973 1294.78,241.405C1301.21,247.837 1304.43,257.581 1304.43,270.637L1304.43,274.093ZM1265.12,197.773C1270.05,197.773 1273.78,195.853 1276.32,192.013C1278.86,188.173 1280.29,184.141 1280.61,179.917L1280.61,141.613L1248.45,141.613C1242.58,141.613 1238.13,143.245 1235.11,146.509C1232.1,149.773 1230.59,154.381 1230.59,160.333L1230.59,179.053C1230.59,185.005 1232.1,189.613 1235.11,192.877C1238.13,196.141 1242.58,197.773 1248.45,197.773L1265.12,197.773Z" style="fill-rule:nonzero;"/>
        </g>
        <g transform="matrix(0.0493815,0,0,0.0408405,139.581,191.174)">
            <path d="M1375.88,62.413L1375.88,88.333L1353.25,88.333L1353.25,62.413L1375.88,62.413ZM1319.43,141.613L1319.43,120.013L1374.69,120.013L1374.69,242.413L1409.94,242.413L1409.94,264.013L1354.44,264.013L1354.44,141.613L1319.43,141.613Z" style="fill-rule:nonzero;"/>
        </g>
        <g transform="matrix(0.0493815,0,0,0.0408405,139.581,191.174)">
            <path d="M1508.08,228.013C1508.08,240.109 1505.02,249.133 1498.91,255.085C1492.79,261.037 1483.94,264.013 1472.35,264.013L1436.86,264.013L1436.86,242.413L1474.73,242.413C1479.02,242.413 1482.27,241.309 1484.5,239.101C1486.72,236.893 1487.83,233.677 1487.83,229.453L1487.83,214.189C1487.83,205.549 1484.42,201.229 1477.59,201.229L1468.78,201.229C1457.66,201.229 1449.36,198.301 1443.88,192.445C1438.41,186.589 1435.67,177.325 1435.67,164.653L1435.67,156.301C1435.67,143.437 1438.68,134.173 1444.72,128.509C1450.75,122.845 1459.64,120.013 1471.39,120.013L1503.31,120.013L1503.31,141.613L1469.01,141.613C1465.04,141.613 1461.87,142.717 1459.49,144.925C1457.1,147.133 1455.91,150.349 1455.91,154.573L1455.91,164.941C1455.91,169.357 1456.99,172.621 1459.13,174.733C1461.27,176.845 1464.01,177.901 1467.35,177.901L1475.44,177.901C1486.08,177.901 1494.18,181.021 1499.74,187.261C1505.3,193.501 1508.08,202.765 1508.08,215.053L1508.08,228.013Z" style="fill-rule:nonzero;"/>
        </g>
        <g transform="matrix(0.0493815,0,0,0.0408405,139.581,191.174)">
            <path d="M1587.87,264.013C1579.77,264.013 1573.58,260.845 1569.29,254.509C1565,248.173 1562.86,239.821 1562.86,229.453L1562.86,141.613L1540.23,141.613L1540.23,120.013L1562.86,120.013L1562.86,85.453L1583.11,85.453L1583.11,120.013L1617.88,120.013L1617.88,141.613L1583.11,141.613L1583.11,230.893C1583.11,235.117 1583.98,238.093 1585.73,239.821C1587.47,241.549 1590.17,242.413 1593.82,242.413L1617.88,242.413L1617.88,264.013L1587.87,264.013Z" style="fill:rgb(189,0,0);fill-rule:nonzero;"/>
        </g>
        <g transform="matrix(0.0493815,0,0,0.0408405,139.581,191.174)">
            <path d="M1695.05,264.013C1686.95,264.013 1680.76,260.845 1676.48,254.509C1672.19,248.173 1670.04,239.821 1670.04,229.453L1670.04,141.613L1647.42,141.613L1647.42,120.013L1670.04,120.013L1670.04,85.453L1690.29,85.453L1690.29,120.013L1725.07,120.013L1725.07,141.613L1690.29,141.613L1690.29,230.893C1690.29,235.117 1691.16,238.093 1692.91,239.821C1694.66,241.549 1697.36,242.413 1701.01,242.413L1725.07,242.413L1725.07,264.013L1695.05,264.013Z" style="fill:rgb(189,0,0);fill-rule:nonzero;"/>
        </g>
        <g transform="matrix(0.0493815,0,0,0.0408405,139.581,191.174)">
            <path d="M1770.32,242.413L1770.32,141.613L1752.93,141.613L1752.93,120.013L1789.38,120.013L1789.38,127.789C1794.62,122.605 1800.97,120.013 1808.43,120.013L1832.96,120.013L1832.96,143.053L1806.05,143.053C1800.97,143.053 1797.16,145.021 1794.62,148.957C1792.08,152.893 1790.73,156.877 1790.57,160.909L1790.57,242.413L1816.53,242.413L1816.53,264.013L1752.93,264.013L1752.93,242.413L1770.32,242.413Z" style="fill-rule:nonzero;"/>
        </g>
        <g transform="matrix(0.0493815,0,0,0.0408405,139.581,191.174)">
            <path d="M1944.91,217.933C1944.91,234.061 1941.62,245.773 1935.03,253.069C1928.44,260.365 1918.24,264.013 1904.42,264.013L1896.56,264.013C1882.75,264.013 1872.54,260.365 1865.95,253.069C1859.36,245.773 1856.07,234.061 1856.07,217.933L1856.07,166.093C1856.07,149.965 1859.36,138.253 1865.95,130.957C1872.54,123.661 1882.75,120.013 1896.56,120.013L1904.42,120.013C1918.24,120.013 1928.44,123.661 1935.03,130.957C1941.62,138.253 1944.91,149.965 1944.91,166.093L1944.91,217.933ZM1924.67,160.333C1924.67,154.381 1923.16,149.773 1920.14,146.509C1917.12,143.245 1912.68,141.613 1906.8,141.613L1894.18,141.613C1888.3,141.613 1883.86,143.245 1880.84,146.509C1877.82,149.773 1876.31,154.381 1876.31,160.333L1876.31,223.693C1876.31,229.645 1877.82,234.253 1880.84,237.517C1883.86,240.781 1888.3,242.413 1894.18,242.413L1906.8,242.413C1912.68,242.413 1917.12,240.781 1920.14,237.517C1923.16,234.253 1924.67,229.645 1924.67,223.693L1924.67,160.333Z" style="fill-rule:nonzero;"/>
        </g>
    </g>
</svg>
